<?xml version="1.0"?>
<!-- Generated by SVGo and Plotinum VG -->
<svg width="770pt" height="385pt" viewBox="0 0 770 385"
	xmlns="http://www.w3.org/2000/svg"
	xmlns:xlink="http://www.w3.org/1999/xlink">
<g transform="scale(1, -1) translate(0, -385)">
<path d="M0,0L770,0L770,385L0,385Z" style="fill:#FFFFFF" />
<text x="326.01" y="-373.45" transform="scale(1, -1)"
	style="font-family:Times;font-weight:normal;font-style:normal;font-size:12px">BenchmarkTdigest_Add</text>
<text x="412.12" y="-3.8613" transform="scale(1, -1)"
	style="font-family:Times;font-weight:normal;font-style:normal;font-size:12px">source</text>
<text x="121.67" y="-15.602" transform="scale(1, -1)"
	style="font-family:Times;font-weight:normal;font-style:normal;font-size:10px">rand</text>
<text x="305.38" y="-15.602" transform="scale(1, -1)"
	style="font-family:Times;font-weight:normal;font-style:normal;font-size:10px">exponential</text>
<text x="512.69" y="-15.602" transform="scale(1, -1)"
	style="font-family:Times;font-weight:normal;font-style:normal;font-size:10px">normal</text>
<text x="708.06" y="-15.602" transform="scale(1, -1)"
	style="font-family:Times;font-weight:normal;font-style:normal;font-size:10px">tailspike</text>
<g transform="rotate(90)">
<text x="186.91" y="11.555" transform="scale(1, -1)"
	style="font-family:Times;font-weight:normal;font-style:normal;font-size:12px">ns/op</text>
</g>
<text x="30.416" y="-25.509" transform="scale(1, -1)"
	style="font-family:Times;font-weight:normal;font-style:normal;font-size:10px">0</text>
<text x="20.416" y="-165.93" transform="scale(1, -1)"
	style="font-family:Times;font-weight:normal;font-style:normal;font-size:10px">600</text>
<text x="15.416" y="-306.35" transform="scale(1, -1)"
	style="font-family:Times;font-weight:normal;font-style:normal;font-size:10px">1200</text>
<path d="M37.916,30.23L45.916,30.23" style="fill:none;stroke:#000000;stroke-width:0.5" />
<path d="M37.916,170.65L45.916,170.65" style="fill:none;stroke:#000000;stroke-width:0.5" />
<path d="M37.916,311.07L45.916,311.07" style="fill:none;stroke:#000000;stroke-width:0.5" />
<path d="M41.916,100.44L45.916,100.44" style="fill:none;stroke:#000000;stroke-width:0.5" />
<path d="M41.916,240.86L45.916,240.86" style="fill:none;stroke:#000000;stroke-width:0.5" />
<path d="M45.916,30.23L45.916,369.58" style="fill:none;stroke:#000000;stroke-width:0.5" />
<path d="M55.55,30.23L55.55,351.33L85.55,351.33L85.55,30.23Z" style="fill:#F15A60" />
<path d="M253.7,30.23L253.7,369.58L283.7,369.58L283.7,30.23Z" style="fill:#F15A60" />
<path d="M451.85,30.23L451.85,362.8L481.85,362.8L481.85,30.23Z" style="fill:#F15A60" />
<path d="M650,30.23L650,361.86L680,361.86L680,30.23Z" style="fill:#F15A60" />
<path d="M85.55,30.23L85.55,140.93L115.55,140.93L115.55,30.23Z" style="fill:#7AC36A" />
<path d="M283.7,30.23L283.7,138.12L313.7,138.12L313.7,30.23Z" style="fill:#7AC36A" />
<path d="M481.85,30.23L481.85,136.72L511.85,136.72L511.85,30.23Z" style="fill:#7AC36A" />
<path d="M680,30.23L680,138.59L710,138.59L710,30.23Z" style="fill:#7AC36A" />
<path d="M115.55,30.23L115.55,68.144L145.55,68.144L145.55,30.23Z" style="fill:#5A9BD4" />
<path d="M313.7,30.23L313.7,66.974L343.7,66.974L343.7,30.23Z" style="fill:#5A9BD4" />
<path d="M511.85,30.23L511.85,67.442L541.85,67.442L541.85,30.23Z" style="fill:#5A9BD4" />
<path d="M710,30.23L710,67.442L740,67.442L740,30.23Z" style="fill:#5A9BD4" />
<path d="M145.55,30.23L145.55,137.19L175.55,137.19L175.55,30.23Z" style="fill:#FAA75B" />
<path d="M343.7,30.23L343.7,132.97L373.7,132.97L373.7,30.23Z" style="fill:#FAA75B" />
<path d="M541.85,30.23L541.85,131.33L571.85,131.33L571.85,30.23Z" style="fill:#FAA75B" />
<path d="M740,30.23L740,131.33L770,131.33L770,30.23Z" style="fill:#FAA75B" />
<path d="M750,357.81L750,369.58L770,369.58L770,357.81Z" style="fill:#F15A60" />
<text x="727.01" y="-358.03" transform="scale(1, -1)"
	style="font-family:Times;font-weight:normal;font-style:normal;font-size:12px">caio</text>
<path d="M750,346.03L750,357.81L770,357.81L770,346.03Z" style="fill:#7AC36A" />
<text x="697.68" y="-346.25" transform="scale(1, -1)"
	style="font-family:Times;font-weight:normal;font-style:normal;font-size:12px">segmentio</text>
<path d="M750,334.25L750,346.03L770,346.03L770,334.25Z" style="fill:#5A9BD4" />
<text x="698.35" y="-334.47" transform="scale(1, -1)"
	style="font-family:Times;font-weight:normal;font-style:normal;font-size:12px">influxdata</text>
<path d="M750,322.47L750,334.25L770,334.25L770,322.47Z" style="fill:#FAA75B" />
<text x="705.67" y="-322.7" transform="scale(1, -1)"
	style="font-family:Times;font-weight:normal;font-style:normal;font-size:12px">lightstep</text>
</g>
</svg>
