<?xml version="1.0"?>
<!-- Generated by SVGo and Plotinum VG -->
<svg width="770pt" height="385pt" viewBox="0 0 770 385"
	xmlns="http://www.w3.org/2000/svg"
	xmlns:xlink="http://www.w3.org/1999/xlink">
<g transform="scale(1, -1) translate(0, -385)">
<path d="M0,0L770,0L770,385L0,385Z" style="fill:#FFFFFF" />
<text x="326.01" y="-373.45" transform="scale(1, -1)"
	style="font-family:Times;font-weight:normal;font-style:normal;font-size:12px">BenchmarkTdigest_Add</text>
<text x="409.41" y="-3.8613" transform="scale(1, -1)"
	style="font-family:Times;font-weight:normal;font-style:normal;font-size:12px">digest</text>
<text x="114.17" y="-15.602" transform="scale(1, -1)"
	style="font-family:Times;font-weight:normal;font-style:normal;font-size:10px">caio</text>
<text x="302.78" y="-15.602" transform="scale(1, -1)"
	style="font-family:Times;font-weight:normal;font-style:normal;font-size:10px">segmentio</text>
<text x="503.89" y="-15.602" transform="scale(1, -1)"
	style="font-family:Times;font-weight:normal;font-style:normal;font-size:10px">influxdata</text>
<text x="707.78" y="-15.602" transform="scale(1, -1)"
	style="font-family:Times;font-weight:normal;font-style:normal;font-size:10px">lightstep</text>
<g transform="rotate(90)">
<text x="175.79" y="11.555" transform="scale(1, -1)"
	style="font-family:Times;font-weight:normal;font-style:normal;font-size:12px">allocs/op</text>
</g>
<text x="15.416" y="-25.509" transform="scale(1, -1)"
	style="font-family:Times;font-weight:normal;font-style:normal;font-size:10px">0.0</text>
<text x="15.416" y="-192.73" transform="scale(1, -1)"
	style="font-family:Times;font-weight:normal;font-style:normal;font-size:10px">0.5</text>
<text x="15.416" y="-359.96" transform="scale(1, -1)"
	style="font-family:Times;font-weight:normal;font-style:normal;font-size:10px">1.0</text>
<path d="M30.416,30.23L38.416,30.23" style="fill:none;stroke:#000000;stroke-width:0.5" />
<path d="M30.416,197.45L38.416,197.45" style="fill:none;stroke:#000000;stroke-width:0.5" />
<path d="M30.416,364.68L38.416,364.68" style="fill:none;stroke:#000000;stroke-width:0.5" />
<path d="M34.416,63.675L38.416,63.675" style="fill:none;stroke:#000000;stroke-width:0.5" />
<path d="M34.416,97.12L38.416,97.12" style="fill:none;stroke:#000000;stroke-width:0.5" />
<path d="M34.416,130.56L38.416,130.56" style="fill:none;stroke:#000000;stroke-width:0.5" />
<path d="M34.416,164.01L38.416,164.01" style="fill:none;stroke:#000000;stroke-width:0.5" />
<path d="M34.416,230.9L38.416,230.9" style="fill:none;stroke:#000000;stroke-width:0.5" />
<path d="M34.416,264.34L38.416,264.34" style="fill:none;stroke:#000000;stroke-width:0.5" />
<path d="M34.416,297.79L38.416,297.79" style="fill:none;stroke:#000000;stroke-width:0.5" />
<path d="M34.416,331.23L38.416,331.23" style="fill:none;stroke:#000000;stroke-width:0.5" />
<path d="M38.416,30.23L38.416,364.68" style="fill:none;stroke:#000000;stroke-width:0.5" />
<path d="M47.494,30.23L47.494,30.23L77.494,30.23L77.494,30.23Z" style="fill:#F15A60" />
<path d="M248.33,30.23L248.33,364.68L278.33,364.68L278.33,30.23Z" style="fill:#F15A60" />
<path d="M449.16,30.23L449.16,30.23L479.16,30.23L479.16,30.23Z" style="fill:#F15A60" />
<path d="M650,30.23L650,30.23L680,30.23L680,30.23Z" style="fill:#F15A60" />
<path d="M77.494,30.23L77.494,30.23L107.49,30.23L107.49,30.23Z" style="fill:#7AC36A" />
<path d="M278.33,30.23L278.33,364.68L308.33,364.68L308.33,30.23Z" style="fill:#7AC36A" />
<path d="M479.16,30.23L479.16,30.23L509.16,30.23L509.16,30.23Z" style="fill:#7AC36A" />
<path d="M680,30.23L680,30.23L710,30.23L710,30.23Z" style="fill:#7AC36A" />
<path d="M107.49,30.23L107.49,30.23L137.49,30.23L137.49,30.23Z" style="fill:#5A9BD4" />
<path d="M308.33,30.23L308.33,364.68L338.33,364.68L338.33,30.23Z" style="fill:#5A9BD4" />
<path d="M509.16,30.23L509.16,30.23L539.16,30.23L539.16,30.23Z" style="fill:#5A9BD4" />
<path d="M710,30.23L710,30.23L740,30.23L740,30.23Z" style="fill:#5A9BD4" />
<path d="M137.49,30.23L137.49,30.23L167.49,30.23L167.49,30.23Z" style="fill:#FAA75B" />
<path d="M338.33,30.23L338.33,364.68L368.33,364.68L368.33,30.23Z" style="fill:#FAA75B" />
<path d="M539.16,30.23L539.16,30.23L569.16,30.23L569.16,30.23Z" style="fill:#FAA75B" />
<path d="M740,30.23L740,30.23L770,30.23L770,30.23Z" style="fill:#FAA75B" />
<path d="M750,357.81L750,369.58L770,369.58L770,357.81Z" style="fill:#F15A60" />
<text x="725.68" y="-358.03" transform="scale(1, -1)"
	style="font-family:Times;font-weight:normal;font-style:normal;font-size:12px">rand</text>
<path d="M750,346.03L750,357.81L770,357.81L770,346.03Z" style="fill:#7AC36A" />
<text x="691.02" y="-346.25" transform="scale(1, -1)"
	style="font-family:Times;font-weight:normal;font-style:normal;font-size:12px">exponential</text>
<path d="M750,334.25L750,346.03L770,346.03L770,334.25Z" style="fill:#5A9BD4" />
<text x="713.01" y="-334.47" transform="scale(1, -1)"
	style="font-family:Times;font-weight:normal;font-style:normal;font-size:12px">normal</text>
<path d="M750,322.47L750,334.25L770,334.25L770,322.47Z" style="fill:#FAA75B" />
<text x="706.34" y="-322.7" transform="scale(1, -1)"
	style="font-family:Times;font-weight:normal;font-style:normal;font-size:12px">tailspike</text>
</g>
</svg>
