<?xml version="1.0"?>
<!-- Generated by SVGo and Plotinum VG -->
<svg width="890pt" height="445pt" viewBox="0 0 890 445"
	xmlns="http://www.w3.org/2000/svg"
	xmlns:xlink="http://www.w3.org/1999/xlink">
<g transform="scale(1, -1) translate(0, -445)">
<path d="M0,0L890,0L890,445L0,445Z" style="fill:#FFFFFF" />
<text x="386.01" y="-433.45" transform="scale(1, -1)"
	style="font-family:Times;font-weight:normal;font-style:normal;font-size:12px">BenchmarkTdigest_Add</text>
<text x="475.86" y="-3.8613" transform="scale(1, -1)"
	style="font-family:Times;font-weight:normal;font-style:normal;font-size:12px">source</text>
<text x="126.67" y="-15.602" transform="scale(1, -1)"
	style="font-family:Times;font-weight:normal;font-style:normal;font-size:10px">linear</text>
<text x="305.9" y="-15.602" transform="scale(1, -1)"
	style="font-family:Times;font-weight:normal;font-style:normal;font-size:10px">rand</text>
<text x="470.14" y="-15.602" transform="scale(1, -1)"
	style="font-family:Times;font-weight:normal;font-style:normal;font-size:10px">alternating</text>
<text x="644.94" y="-15.602" transform="scale(1, -1)"
	style="font-family:Times;font-weight:normal;font-style:normal;font-size:10px">exponential</text>
<text x="828.06" y="-15.602" transform="scale(1, -1)"
	style="font-family:Times;font-weight:normal;font-style:normal;font-size:10px">tailspike</text>
<g transform="rotate(90)">
<text x="216.91" y="11.555" transform="scale(1, -1)"
	style="font-family:Times;font-weight:normal;font-style:normal;font-size:12px">ns/op</text>
</g>
<text x="35.416" y="-25.509" transform="scale(1, -1)"
	style="font-family:Times;font-weight:normal;font-style:normal;font-size:10px">0</text>
<text x="20.416" y="-205.22" transform="scale(1, -1)"
	style="font-family:Times;font-weight:normal;font-style:normal;font-size:10px">5000</text>
<text x="15.416" y="-384.93" transform="scale(1, -1)"
	style="font-family:Times;font-weight:normal;font-style:normal;font-size:10px">10000</text>
<path d="M42.916,30.23L50.916,30.23" style="fill:none;stroke:#000000;stroke-width:0.5" />
<path d="M42.916,209.94L50.916,209.94" style="fill:none;stroke:#000000;stroke-width:0.5" />
<path d="M42.916,389.65L50.916,389.65" style="fill:none;stroke:#000000;stroke-width:0.5" />
<path d="M46.916,66.173L50.916,66.173" style="fill:none;stroke:#000000;stroke-width:0.5" />
<path d="M46.916,102.11L50.916,102.11" style="fill:none;stroke:#000000;stroke-width:0.5" />
<path d="M46.916,138.06L50.916,138.06" style="fill:none;stroke:#000000;stroke-width:0.5" />
<path d="M46.916,174L50.916,174" style="fill:none;stroke:#000000;stroke-width:0.5" />
<path d="M46.916,245.88L50.916,245.88" style="fill:none;stroke:#000000;stroke-width:0.5" />
<path d="M46.916,281.83L50.916,281.83" style="fill:none;stroke:#000000;stroke-width:0.5" />
<path d="M46.916,317.77L50.916,317.77" style="fill:none;stroke:#000000;stroke-width:0.5" />
<path d="M46.916,353.71L50.916,353.71" style="fill:none;stroke:#000000;stroke-width:0.5" />
<path d="M46.916,425.59L50.916,425.59" style="fill:none;stroke:#000000;stroke-width:0.5" />
<path d="M50.916,30.23L50.916,429.58" style="fill:none;stroke:#000000;stroke-width:0.5" />
<path d="M63.048,30.23L63.048,217.53L93.048,217.53L93.048,30.23Z" style="fill:#F15A60" />
<path d="M239.79,30.23L239.79,84.144L269.79,84.144L269.79,30.23Z" style="fill:#F15A60" />
<path d="M416.52,30.23L416.52,429.58L446.52,429.58L446.52,30.23Z" style="fill:#F15A60" />
<path d="M593.26,30.23L593.26,130.9L623.26,130.9L623.26,30.23Z" style="fill:#F15A60" />
<path d="M770,30.23L770,88.96L800,88.96L800,30.23Z" style="fill:#F15A60" />
<path d="M93.048,30.23L93.048,69.839L123.05,69.839L123.05,30.23Z" style="fill:#7AC36A" />
<path d="M269.79,30.23L269.79,47.95L299.79,47.95L299.79,30.23Z" style="fill:#7AC36A" />
<path d="M446.52,30.23L446.52,67.035L476.52,67.035L476.52,30.23Z" style="fill:#7AC36A" />
<path d="M623.26,30.23L623.26,49.46L653.26,49.46L653.26,30.23Z" style="fill:#7AC36A" />
<path d="M800,30.23L800,48.13L830,48.13L830,30.23Z" style="fill:#7AC36A" />
<path d="M123.05,30.23L123.05,33.933L153.05,33.933L153.05,30.23Z" style="fill:#5A9BD4" />
<path d="M299.79,30.23L299.79,36.664L329.79,36.664L329.79,30.23Z" style="fill:#5A9BD4" />
<path d="M476.52,30.23L476.52,31.916L506.52,31.916L506.52,30.23Z" style="fill:#5A9BD4" />
<path d="M653.26,30.23L653.26,37.275L683.26,37.275L683.26,30.23Z" style="fill:#5A9BD4" />
<path d="M830,30.23L830,36.592L860,36.592L860,30.23Z" style="fill:#5A9BD4" />
<path d="M153.05,30.23L153.05,36.161L183.05,36.161L183.05,30.23Z" style="fill:#FAA75B" />
<path d="M329.79,30.23L329.79,39.216L359.79,39.216L359.79,30.23Z" style="fill:#FAA75B" />
<path d="M506.52,30.23L506.52,35.478L536.52,35.478L536.52,30.23Z" style="fill:#FAA75B" />
<path d="M683.26,30.23L683.26,39.719L713.26,39.719L713.26,30.23Z" style="fill:#FAA75B" />
<path d="M860,30.23L860,39.144L890,39.144L890,30.23Z" style="fill:#FAA75B" />
<path d="M870,417.81L870,429.58L890,429.58L890,417.81Z" style="fill:#F15A60" />
<text x="847.01" y="-418.03" transform="scale(1, -1)"
	style="font-family:Times;font-weight:normal;font-style:normal;font-size:12px">caio</text>
<path d="M870,406.03L870,417.81L890,417.81L890,406.03Z" style="fill:#7AC36A" />
<text x="817.68" y="-406.25" transform="scale(1, -1)"
	style="font-family:Times;font-weight:normal;font-style:normal;font-size:12px">segmentio</text>
<path d="M870,394.25L870,406.03L890,406.03L890,394.25Z" style="fill:#5A9BD4" />
<text x="818.35" y="-394.47" transform="scale(1, -1)"
	style="font-family:Times;font-weight:normal;font-style:normal;font-size:12px">influxdata</text>
<path d="M870,382.47L870,394.25L890,394.25L890,382.47Z" style="fill:#FAA75B" />
<text x="825.67" y="-382.7" transform="scale(1, -1)"
	style="font-family:Times;font-weight:normal;font-style:normal;font-size:12px">lightstep</text>
</g>
</svg>
