<?xml version="1.0"?>
<!-- Generated by SVGo and Plotinum VG -->
<svg width="890pt" height="445pt" viewBox="0 0 890 445"
	xmlns="http://www.w3.org/2000/svg"
	xmlns:xlink="http://www.w3.org/1999/xlink">
<g transform="scale(1, -1) translate(0, -445)">
<path d="M0,0L890,0L890,445L0,445Z" style="fill:#FFFFFF" />
<text x="386.01" y="-433.45" transform="scale(1, -1)"
	style="font-family:Times;font-weight:normal;font-style:normal;font-size:12px">BenchmarkTdigest_Add</text>
<text x="450.66" y="-3.8613" transform="scale(1, -1)"
	style="font-family:Times;font-weight:normal;font-style:normal;font-size:12px">digest</text>
<text x="106.67" y="-15.602" transform="scale(1, -1)"
	style="font-family:Times;font-weight:normal;font-style:normal;font-size:10px">caio</text>
<text x="327.78" y="-15.602" transform="scale(1, -1)"
	style="font-family:Times;font-weight:normal;font-style:normal;font-size:10px">segmentio</text>
<text x="561.39" y="-15.602" transform="scale(1, -1)"
	style="font-family:Times;font-weight:normal;font-style:normal;font-size:10px">influxdata</text>
<text x="797.78" y="-15.602" transform="scale(1, -1)"
	style="font-family:Times;font-weight:normal;font-style:normal;font-size:10px">lightstep</text>
<g transform="rotate(90)">
<text x="205.79" y="11.555" transform="scale(1, -1)"
	style="font-family:Times;font-weight:normal;font-style:normal;font-size:12px">allocs/op</text>
</g>
<text x="15.416" y="-25.509" transform="scale(1, -1)"
	style="font-family:Times;font-weight:normal;font-style:normal;font-size:10px">0</text>
<text x="15.416" y="-222.73" transform="scale(1, -1)"
	style="font-family:Times;font-weight:normal;font-style:normal;font-size:10px">4</text>
<text x="15.416" y="-419.96" transform="scale(1, -1)"
	style="font-family:Times;font-weight:normal;font-style:normal;font-size:10px">8</text>
<path d="M22.916,30.23L30.916,30.23" style="fill:none;stroke:#000000;stroke-width:0.5" />
<path d="M22.916,227.45L30.916,227.45" style="fill:none;stroke:#000000;stroke-width:0.5" />
<path d="M22.916,424.68L30.916,424.68" style="fill:none;stroke:#000000;stroke-width:0.5" />
<path d="M26.916,79.536L30.916,79.536" style="fill:none;stroke:#000000;stroke-width:0.5" />
<path d="M26.916,128.84L30.916,128.84" style="fill:none;stroke:#000000;stroke-width:0.5" />
<path d="M26.916,178.15L30.916,178.15" style="fill:none;stroke:#000000;stroke-width:0.5" />
<path d="M26.916,276.76L30.916,276.76" style="fill:none;stroke:#000000;stroke-width:0.5" />
<path d="M26.916,326.07L30.916,326.07" style="fill:none;stroke:#000000;stroke-width:0.5" />
<path d="M26.916,375.37L30.916,375.37" style="fill:none;stroke:#000000;stroke-width:0.5" />
<path d="M30.916,30.23L30.916,424.68" style="fill:none;stroke:#000000;stroke-width:0.5" />
<path d="M39.994,30.23L39.994,30.23L69.994,30.23L69.994,30.23Z" style="fill:#F15A60" />
<path d="M273.33,30.23L273.33,79.536L303.33,79.536L303.33,30.23Z" style="fill:#F15A60" />
<path d="M506.66,30.23L506.66,30.23L536.66,30.23L536.66,30.23Z" style="fill:#F15A60" />
<path d="M740,30.23L740,30.23L770,30.23L770,30.23Z" style="fill:#F15A60" />
<path d="M69.994,30.23L69.994,30.23L99.994,30.23L99.994,30.23Z" style="fill:#7AC36A" />
<path d="M303.33,30.23L303.33,79.536L333.33,79.536L333.33,30.23Z" style="fill:#7AC36A" />
<path d="M536.66,30.23L536.66,30.23L566.66,30.23L566.66,30.23Z" style="fill:#7AC36A" />
<path d="M770,30.23L770,30.23L800,30.23L800,30.23Z" style="fill:#7AC36A" />
<path d="M99.994,30.23L99.994,30.23L129.99,30.23L129.99,30.23Z" style="fill:#5A9BD4" />
<path d="M333.33,30.23L333.33,424.68L363.33,424.68L363.33,30.23Z" style="fill:#5A9BD4" />
<path d="M566.66,30.23L566.66,30.23L596.66,30.23L596.66,30.23Z" style="fill:#5A9BD4" />
<path d="M800,30.23L800,30.23L830,30.23L830,30.23Z" style="fill:#5A9BD4" />
<path d="M129.99,30.23L129.99,30.23L159.99,30.23L159.99,30.23Z" style="fill:#FAA75B" />
<path d="M363.33,30.23L363.33,79.536L393.33,79.536L393.33,30.23Z" style="fill:#FAA75B" />
<path d="M596.66,30.23L596.66,30.23L626.66,30.23L626.66,30.23Z" style="fill:#FAA75B" />
<path d="M830,30.23L830,30.23L860,30.23L860,30.23Z" style="fill:#FAA75B" />
<path d="M159.99,30.23L159.99,30.23L189.99,30.23L189.99,30.23Z" style="fill:#9E67AB" />
<path d="M393.33,30.23L393.33,79.536L423.33,79.536L423.33,30.23Z" style="fill:#9E67AB" />
<path d="M626.66,30.23L626.66,30.23L656.66,30.23L656.66,30.23Z" style="fill:#9E67AB" />
<path d="M860,30.23L860,30.23L890,30.23L890,30.23Z" style="fill:#9E67AB" />
<path d="M870,417.81L870,429.58L890,429.58L890,417.81Z" style="fill:#F15A60" />
<text x="839.68" y="-418.03" transform="scale(1, -1)"
	style="font-family:Times;font-weight:normal;font-style:normal;font-size:12px">linear</text>
<path d="M870,406.03L870,417.81L890,417.81L890,406.03Z" style="fill:#7AC36A" />
<text x="845.68" y="-406.25" transform="scale(1, -1)"
	style="font-family:Times;font-weight:normal;font-style:normal;font-size:12px">rand</text>
<path d="M870,394.25L870,406.03L890,406.03L890,394.25Z" style="fill:#5A9BD4" />
<text x="815.69" y="-394.47" transform="scale(1, -1)"
	style="font-family:Times;font-weight:normal;font-style:normal;font-size:12px">alternating</text>
<path d="M870,382.47L870,394.25L890,394.25L890,382.47Z" style="fill:#FAA75B" />
<text x="811.02" y="-382.7" transform="scale(1, -1)"
	style="font-family:Times;font-weight:normal;font-style:normal;font-size:12px">exponential</text>
<path d="M870,370.7L870,382.47L890,382.47L890,370.7Z" style="fill:#9E67AB" />
<text x="826.34" y="-370.92" transform="scale(1, -1)"
	style="font-family:Times;font-weight:normal;font-style:normal;font-size:12px">tailspike</text>
</g>
</svg>
