<?xml version="1.0"?>
<!-- Generated by SVGo and Plotinum VG -->
<svg width="440pt" height="220pt" viewBox="0 0 440 220"
	xmlns="http://www.w3.org/2000/svg"
	xmlns:xlink="http://www.w3.org/1999/xlink">
<g transform="scale(1, -1) translate(0, -220)">
<path d="M0,0L440,0L440,220L0,220Z" style="fill:#FFFFFF" />
<text x="35.896" y="-208.45" transform="scale(1, -1)"
	style="font-family:Times;font-weight:normal;font-style:normal;font-size:12px">BenchmarkCorrectness/size=1000000/source=exponential/digest=segmentio</text>
<text x="230.26" y="-3.8613" transform="scale(1, -1)"
	style="font-family:Times;font-weight:normal;font-style:normal;font-size:12px">quantile</text>
<text x="59.166" y="-15.602" transform="scale(1, -1)"
	style="font-family:Times;font-weight:normal;font-style:normal;font-size:10px">0.100000</text>
<text x="145" y="-15.602" transform="scale(1, -1)"
	style="font-family:Times;font-weight:normal;font-style:normal;font-size:10px">0.500000</text>
<text x="230.83" y="-15.602" transform="scale(1, -1)"
	style="font-family:Times;font-weight:normal;font-style:normal;font-size:10px">0.900000</text>
<text x="316.67" y="-15.602" transform="scale(1, -1)"
	style="font-family:Times;font-weight:normal;font-style:normal;font-size:10px">0.990000</text>
<text x="402.5" y="-15.602" transform="scale(1, -1)"
	style="font-family:Times;font-weight:normal;font-style:normal;font-size:10px">0.999000</text>
<g transform="rotate(90)">
<text x="87.47" y="11.555" transform="scale(1, -1)"
	style="font-family:Times;font-weight:normal;font-style:normal;font-size:12px">%difference</text>
</g>
<text x="15.416" y="-38.61" transform="scale(1, -1)"
	style="font-family:Times;font-weight:normal;font-style:normal;font-size:10px">0.00</text>
<text x="15.416" y="-116.78" transform="scale(1, -1)"
	style="font-family:Times;font-weight:normal;font-style:normal;font-size:10px">0.25</text>
<text x="15.416" y="-194.96" transform="scale(1, -1)"
	style="font-family:Times;font-weight:normal;font-style:normal;font-size:10px">0.50</text>
<path d="M35.416,43.332L43.416,43.332" style="fill:none;stroke:#000000;stroke-width:0.5" />
<path d="M35.416,121.5L43.416,121.5" style="fill:none;stroke:#000000;stroke-width:0.5" />
<path d="M35.416,199.68L43.416,199.68" style="fill:none;stroke:#000000;stroke-width:0.5" />
<path d="M39.416,58.967L43.416,58.967" style="fill:none;stroke:#000000;stroke-width:0.5" />
<path d="M39.416,74.601L43.416,74.601" style="fill:none;stroke:#000000;stroke-width:0.5" />
<path d="M39.416,90.236L43.416,90.236" style="fill:none;stroke:#000000;stroke-width:0.5" />
<path d="M39.416,105.87L43.416,105.87" style="fill:none;stroke:#000000;stroke-width:0.5" />
<path d="M39.416,137.14L43.416,137.14" style="fill:none;stroke:#000000;stroke-width:0.5" />
<path d="M39.416,152.77L43.416,152.77" style="fill:none;stroke:#000000;stroke-width:0.5" />
<path d="M39.416,168.41L43.416,168.41" style="fill:none;stroke:#000000;stroke-width:0.5" />
<path d="M39.416,184.04L43.416,184.04" style="fill:none;stroke:#000000;stroke-width:0.5" />
<path d="M43.416,30.23L43.416,203.12" style="fill:none;stroke:#000000;stroke-width:0.5" />
<path d="M62.916,43.332L62.916,76.165L92.916,76.165L92.916,43.332Z" style="fill:#F15A60" />
<path d="M148.75,43.332L148.75,30.23L178.75,30.23L178.75,43.332Z" style="fill:#F15A60" />
<path d="M234.58,43.332L234.58,203.12L264.58,203.12L264.58,43.332Z" style="fill:#F15A60" />
<path d="M320.42,43.332L320.42,33.951L350.42,33.951L350.42,43.332Z" style="fill:#F15A60" />
<path d="M406.25,43.332L406.25,40.368L436.25,40.368L436.25,43.332Z" style="fill:#F15A60" />
<path d="M420,204.58L420,204.58L440,204.58L440,204.58Z" style="fill:#F15A60" />
</g>
</svg>
