<?xml version="1.0"?>
<!-- Generated by SVGo and Plotinum VG -->
<svg width="890pt" height="445pt" viewBox="0 0 890 445"
	xmlns="http://www.w3.org/2000/svg"
	xmlns:xlink="http://www.w3.org/1999/xlink">
<g transform="scale(1, -1) translate(0, -445)">
<path d="M0,0L890,0L890,445L0,445Z" style="fill:#FFFFFF" />
<text x="309.6" y="-433.45" transform="scale(1, -1)"
	style="font-family:Times;font-weight:normal;font-style:normal;font-size:12px">BenchmarkCorrectness/size=1000000/digest=segmentio</text>
<text x="455.03" y="-3.8613" transform="scale(1, -1)"
	style="font-family:Times;font-weight:normal;font-style:normal;font-size:12px">source</text>
<text x="117.5" y="-15.602" transform="scale(1, -1)"
	style="font-family:Times;font-weight:normal;font-style:normal;font-size:10px">rand</text>
<text x="332.6" y="-15.602" transform="scale(1, -1)"
	style="font-family:Times;font-weight:normal;font-style:normal;font-size:10px">exponential</text>
<text x="571.3" y="-15.602" transform="scale(1, -1)"
	style="font-family:Times;font-weight:normal;font-style:normal;font-size:10px">normal</text>
<text x="798.06" y="-15.602" transform="scale(1, -1)"
	style="font-family:Times;font-weight:normal;font-style:normal;font-size:10px">tailspike</text>
<g transform="rotate(90)">
<text x="200.7" y="11.555" transform="scale(1, -1)"
	style="font-family:Times;font-weight:normal;font-style:normal;font-size:12px">%difference</text>
</g>
<text x="15.416" y="-69.184" transform="scale(1, -1)"
	style="font-family:Times;font-weight:normal;font-style:normal;font-size:10px">-0.3</text>
<text x="18.746" y="-226.1" transform="scale(1, -1)"
	style="font-family:Times;font-weight:normal;font-style:normal;font-size:10px">0.3</text>
<text x="18.746" y="-383.02" transform="scale(1, -1)"
	style="font-family:Times;font-weight:normal;font-style:normal;font-size:10px">0.9</text>
<path d="M33.746,73.906L41.746,73.906" style="fill:none;stroke:#000000;stroke-width:0.5" />
<path d="M33.746,230.82L41.746,230.82" style="fill:none;stroke:#000000;stroke-width:0.5" />
<path d="M33.746,387.74L41.746,387.74" style="fill:none;stroke:#000000;stroke-width:0.5" />
<path d="M37.746,152.36L41.746,152.36" style="fill:none;stroke:#000000;stroke-width:0.5" />
<path d="M37.746,309.28L41.746,309.28" style="fill:none;stroke:#000000;stroke-width:0.5" />
<path d="M41.746,30.23L41.746,429.58" style="fill:none;stroke:#000000;stroke-width:0.5" />
<path d="M51.38,152.36L51.38,151.69L81.38,151.69L81.38,152.36Z" style="fill:#F15A60" />
<path d="M280.92,152.36L280.92,179.82L310.92,179.82L310.92,152.36Z" style="fill:#F15A60" />
<path d="M510.46,152.36L510.46,248.87L540.46,248.87L540.46,152.36Z" style="fill:#F15A60" />
<path d="M740,152.36L740,134.42L770,134.42L770,152.36Z" style="fill:#F15A60" />
<path d="M81.38,152.36L81.38,222.72L111.38,222.72L111.38,152.36Z" style="fill:#7AC36A" />
<path d="M310.92,152.36L310.92,141.41L340.92,141.41L340.92,152.36Z" style="fill:#7AC36A" />
<path d="M540.46,152.36L540.46,429.58L570.46,429.58L570.46,152.36Z" style="fill:#7AC36A" />
<path d="M770,152.36L770,81.752L800,81.752L800,152.36Z" style="fill:#7AC36A" />
<path d="M111.38,152.36L111.38,77.044L141.38,77.044L141.38,152.36Z" style="fill:#5A9BD4" />
<path d="M340.92,152.36L340.92,286.01L370.92,286.01L370.92,152.36Z" style="fill:#5A9BD4" />
<path d="M570.46,152.36L570.46,30.23L600.46,30.23L600.46,152.36Z" style="fill:#5A9BD4" />
<path d="M800,152.36L800,146.69L830,146.69L830,152.36Z" style="fill:#5A9BD4" />
<path d="M141.38,152.36L141.38,127.81L171.38,127.81L171.38,152.36Z" style="fill:#FAA75B" />
<path d="M370.92,152.36L370.92,144.52L400.92,144.52L400.92,152.36Z" style="fill:#FAA75B" />
<path d="M600.46,152.36L600.46,141.46L630.46,141.46L630.46,152.36Z" style="fill:#FAA75B" />
<path d="M830,152.36L830,138.82L860,138.82L860,152.36Z" style="fill:#FAA75B" />
<path d="M171.38,152.36L171.38,152.18L201.38,152.18L201.38,152.36Z" style="fill:#9E67AB" />
<path d="M400.92,152.36L400.92,149.88L430.92,149.88L430.92,152.36Z" style="fill:#9E67AB" />
<path d="M630.46,152.36L630.46,147.32L660.46,147.32L660.46,152.36Z" style="fill:#9E67AB" />
<path d="M860,152.36L860,151.2L890,151.2L890,152.36Z" style="fill:#9E67AB" />
<path d="M870,417.81L870,429.58L890,429.58L890,417.81Z" style="fill:#F15A60" />
<text x="822" y="-418.03" transform="scale(1, -1)"
	style="font-family:Times;font-weight:normal;font-style:normal;font-size:12px">0.100000</text>
<path d="M870,406.03L870,417.81L890,417.81L890,406.03Z" style="fill:#7AC36A" />
<text x="822" y="-406.25" transform="scale(1, -1)"
	style="font-family:Times;font-weight:normal;font-style:normal;font-size:12px">0.500000</text>
<path d="M870,394.25L870,406.03L890,406.03L890,394.25Z" style="fill:#5A9BD4" />
<text x="822" y="-394.47" transform="scale(1, -1)"
	style="font-family:Times;font-weight:normal;font-style:normal;font-size:12px">0.900000</text>
<path d="M870,382.47L870,394.25L890,394.25L890,382.47Z" style="fill:#FAA75B" />
<text x="822" y="-382.7" transform="scale(1, -1)"
	style="font-family:Times;font-weight:normal;font-style:normal;font-size:12px">0.990000</text>
<path d="M870,370.7L870,382.47L890,382.47L890,370.7Z" style="fill:#9E67AB" />
<text x="822" y="-370.92" transform="scale(1, -1)"
	style="font-family:Times;font-weight:normal;font-style:normal;font-size:12px">0.999000</text>
</g>
</svg>
