<?xml version="1.0"?>
<!-- Generated by SVGo and Plotinum VG -->
<svg width="890pt" height="445pt" viewBox="0 0 890 445"
	xmlns="http://www.w3.org/2000/svg"
	xmlns:xlink="http://www.w3.org/1999/xlink">
<g transform="scale(1, -1) translate(0, -445)">
<path d="M0,0L890,0L890,445L0,445Z" style="fill:#FFFFFF" />
<text x="306.76" y="-433.45" transform="scale(1, -1)"
	style="font-family:Times;font-weight:normal;font-style:normal;font-size:12px">BenchmarkCorrectness/size=1000000/quantile=0.990000</text>
<text x="473.36" y="-3.8613" transform="scale(1, -1)"
	style="font-family:Times;font-weight:normal;font-style:normal;font-size:12px">source</text>
<text x="121.67" y="-15.602" transform="scale(1, -1)"
	style="font-family:Times;font-weight:normal;font-style:normal;font-size:10px">linear</text>
<text x="302.15" y="-15.602" transform="scale(1, -1)"
	style="font-family:Times;font-weight:normal;font-style:normal;font-size:10px">rand</text>
<text x="467.64" y="-15.602" transform="scale(1, -1)"
	style="font-family:Times;font-weight:normal;font-style:normal;font-size:10px">alternating</text>
<text x="643.69" y="-15.602" transform="scale(1, -1)"
	style="font-family:Times;font-weight:normal;font-style:normal;font-size:10px">exponential</text>
<text x="828.06" y="-15.602" transform="scale(1, -1)"
	style="font-family:Times;font-weight:normal;font-style:normal;font-size:10px">tailspike</text>
<g transform="rotate(90)">
<text x="200.7" y="11.555" transform="scale(1, -1)"
	style="font-family:Times;font-weight:normal;font-style:normal;font-size:12px">%difference</text>
</g>
<text x="30.416" y="-25.509" transform="scale(1, -1)"
	style="font-family:Times;font-weight:normal;font-style:normal;font-size:10px">0</text>
<text x="15.416" y="-201.03" transform="scale(1, -1)"
	style="font-family:Times;font-weight:normal;font-style:normal;font-size:10px">4000</text>
<text x="15.416" y="-376.55" transform="scale(1, -1)"
	style="font-family:Times;font-weight:normal;font-style:normal;font-size:10px">8000</text>
<path d="M37.916,30.23L45.916,30.23" style="fill:none;stroke:#000000;stroke-width:0.5" />
<path d="M37.916,205.75L45.916,205.75" style="fill:none;stroke:#000000;stroke-width:0.5" />
<path d="M37.916,381.27L45.916,381.27" style="fill:none;stroke:#000000;stroke-width:0.5" />
<path d="M41.916,74.111L45.916,74.111" style="fill:none;stroke:#000000;stroke-width:0.5" />
<path d="M41.916,117.99L45.916,117.99" style="fill:none;stroke:#000000;stroke-width:0.5" />
<path d="M41.916,161.87L45.916,161.87" style="fill:none;stroke:#000000;stroke-width:0.5" />
<path d="M41.916,249.63L45.916,249.63" style="fill:none;stroke:#000000;stroke-width:0.5" />
<path d="M41.916,293.51L45.916,293.51" style="fill:none;stroke:#000000;stroke-width:0.5" />
<path d="M41.916,337.39L45.916,337.39" style="fill:none;stroke:#000000;stroke-width:0.5" />
<path d="M41.916,425.15L45.916,425.15" style="fill:none;stroke:#000000;stroke-width:0.5" />
<path d="M45.916,30.23L45.916,429.58" style="fill:none;stroke:#000000;stroke-width:0.5" />
<path d="M58.048,30.23L58.048,30.274L88.048,30.274L88.048,30.23Z" style="fill:#F15A60" />
<path d="M236.04,30.23L236.04,30.23L266.04,30.23L266.04,30.23Z" style="fill:#F15A60" />
<path d="M414.02,30.23L414.02,30.23L444.02,30.23L444.02,30.23Z" style="fill:#F15A60" />
<path d="M592.01,30.23L592.01,30.23L622.01,30.23L622.01,30.23Z" style="fill:#F15A60" />
<path d="M770,30.23L770,30.23L800,30.23L800,30.23Z" style="fill:#F15A60" />
<path d="M88.048,30.23L88.048,30.252L118.05,30.252L118.05,30.23Z" style="fill:#7AC36A" />
<path d="M266.04,30.23L266.04,30.231L296.04,30.231L296.04,30.23Z" style="fill:#7AC36A" />
<path d="M444.02,30.23L444.02,30.23L474.02,30.23L474.02,30.23Z" style="fill:#7AC36A" />
<path d="M622.01,30.23L622.01,30.232L652.01,30.232L652.01,30.23Z" style="fill:#7AC36A" />
<path d="M800,30.23L800,30.231L830,30.231L830,30.23Z" style="fill:#7AC36A" />
<path d="M118.05,30.23L118.05,30.252L148.05,30.252L148.05,30.23Z" style="fill:#5A9BD4" />
<path d="M296.04,30.23L296.04,30.23L326.04,30.23L326.04,30.23Z" style="fill:#5A9BD4" />
<path d="M474.02,30.23L474.02,30.23L504.02,30.23L504.02,30.23Z" style="fill:#5A9BD4" />
<path d="M652.01,30.23L652.01,30.231L682.01,30.231L682.01,30.23Z" style="fill:#5A9BD4" />
<path d="M830,30.23L830,30.23L860,30.23L860,30.23Z" style="fill:#5A9BD4" />
<path d="M148.05,30.23L148.05,429.58L178.05,429.58L178.05,30.23Z" style="fill:#FAA75B" />
<path d="M326.04,30.23L326.04,30.231L356.04,30.231L356.04,30.23Z" style="fill:#FAA75B" />
<path d="M504.02,30.23L504.02,30.231L534.02,30.231L534.02,30.23Z" style="fill:#FAA75B" />
<path d="M682.01,30.23L682.01,30.241L712.01,30.241L712.01,30.23Z" style="fill:#FAA75B" />
<path d="M860,30.23L860,30.231L890,30.231L890,30.23Z" style="fill:#FAA75B" />
<path d="M870,417.81L870,429.58L890,429.58L890,417.81Z" style="fill:#F15A60" />
<text x="847.01" y="-418.03" transform="scale(1, -1)"
	style="font-family:Times;font-weight:normal;font-style:normal;font-size:12px">caio</text>
<path d="M870,406.03L870,417.81L890,417.81L890,406.03Z" style="fill:#7AC36A" />
<text x="817.68" y="-406.25" transform="scale(1, -1)"
	style="font-family:Times;font-weight:normal;font-style:normal;font-size:12px">segmentio</text>
<path d="M870,394.25L870,406.03L890,406.03L890,394.25Z" style="fill:#5A9BD4" />
<text x="818.35" y="-394.47" transform="scale(1, -1)"
	style="font-family:Times;font-weight:normal;font-style:normal;font-size:12px">influxdata</text>
<path d="M870,382.47L870,394.25L890,394.25L890,382.47Z" style="fill:#FAA75B" />
<text x="825.67" y="-382.7" transform="scale(1, -1)"
	style="font-family:Times;font-weight:normal;font-style:normal;font-size:12px">lightstep</text>
</g>
</svg>
