<?xml version="1.0"?>
<!-- Generated by SVGo and Plotinum VG -->
<svg width="440pt" height="220pt" viewBox="0 0 440 220"
	xmlns="http://www.w3.org/2000/svg"
	xmlns:xlink="http://www.w3.org/1999/xlink">
<g transform="scale(1, -1) translate(0, -220)">
<path d="M0,0L440,0L440,220L0,220Z" style="fill:#FFFFFF" />
<text x="39.892" y="-208.45" transform="scale(1, -1)"
	style="font-family:Times;font-weight:normal;font-style:normal;font-size:12px">BenchmarkCorrectness/size=1000000/source=exponential/digest=lightstep</text>
<text x="231.92" y="-3.8613" transform="scale(1, -1)"
	style="font-family:Times;font-weight:normal;font-style:normal;font-size:12px">quantile</text>
<text x="62.496" y="-15.602" transform="scale(1, -1)"
	style="font-family:Times;font-weight:normal;font-style:normal;font-size:10px">0.100000</text>
<text x="147.5" y="-15.602" transform="scale(1, -1)"
	style="font-family:Times;font-weight:normal;font-style:normal;font-size:10px">0.500000</text>
<text x="232.5" y="-15.602" transform="scale(1, -1)"
	style="font-family:Times;font-weight:normal;font-style:normal;font-size:10px">0.900000</text>
<text x="317.5" y="-15.602" transform="scale(1, -1)"
	style="font-family:Times;font-weight:normal;font-style:normal;font-size:10px">0.990000</text>
<text x="402.5" y="-15.602" transform="scale(1, -1)"
	style="font-family:Times;font-weight:normal;font-style:normal;font-size:10px">0.999000</text>
<g transform="rotate(90)">
<text x="88.204" y="11.555" transform="scale(1, -1)"
	style="font-family:Times;font-weight:normal;font-style:normal;font-size:12px">%difference</text>
</g>
<text x="15.416" y="-57.038" transform="scale(1, -1)"
	style="font-family:Times;font-weight:normal;font-style:normal;font-size:10px">-0.25</text>
<text x="18.746" y="-124.41" transform="scale(1, -1)"
	style="font-family:Times;font-weight:normal;font-style:normal;font-size:10px">0.00</text>
<text x="18.746" y="-191.78" transform="scale(1, -1)"
	style="font-family:Times;font-weight:normal;font-style:normal;font-size:10px">0.25</text>
<path d="M38.746,61.76L46.746,61.76" style="fill:none;stroke:#000000;stroke-width:0.5" />
<path d="M38.746,129.13L46.746,129.13" style="fill:none;stroke:#000000;stroke-width:0.5" />
<path d="M38.746,196.5L46.746,196.5" style="fill:none;stroke:#000000;stroke-width:0.5" />
<path d="M42.746,34.812L46.746,34.812" style="fill:none;stroke:#000000;stroke-width:0.5" />
<path d="M42.746,48.286L46.746,48.286" style="fill:none;stroke:#000000;stroke-width:0.5" />
<path d="M42.746,75.234L46.746,75.234" style="fill:none;stroke:#000000;stroke-width:0.5" />
<path d="M42.746,88.708L46.746,88.708" style="fill:none;stroke:#000000;stroke-width:0.5" />
<path d="M42.746,102.18L46.746,102.18" style="fill:none;stroke:#000000;stroke-width:0.5" />
<path d="M42.746,115.66L46.746,115.66" style="fill:none;stroke:#000000;stroke-width:0.5" />
<path d="M42.746,142.6L46.746,142.6" style="fill:none;stroke:#000000;stroke-width:0.5" />
<path d="M42.746,156.08L46.746,156.08" style="fill:none;stroke:#000000;stroke-width:0.5" />
<path d="M42.746,169.55L46.746,169.55" style="fill:none;stroke:#000000;stroke-width:0.5" />
<path d="M42.746,183.03L46.746,183.03" style="fill:none;stroke:#000000;stroke-width:0.5" />
<path d="M46.746,30.23L46.746,204.58" style="fill:none;stroke:#000000;stroke-width:0.5" />
<path d="M66.246,129.13L66.246,204.58L96.246,204.58L96.246,129.13Z" style="fill:#F15A60" />
<path d="M151.25,129.13L151.25,81.432L181.25,81.432L181.25,129.13Z" style="fill:#F15A60" />
<path d="M236.25,129.13L236.25,30.23L266.25,30.23L266.25,129.13Z" style="fill:#F15A60" />
<path d="M321.25,129.13L321.25,98.678L351.25,98.678L351.25,129.13Z" style="fill:#F15A60" />
<path d="M406.25,129.13L406.25,129.38L436.25,129.38L436.25,129.13Z" style="fill:#F15A60" />
<path d="M420,204.58L420,204.58L440,204.58L440,204.58Z" style="fill:#F15A60" />
</g>
</svg>
