<?xml version="1.0"?>
<!-- Generated by SVGo and Plotinum VG -->
<svg width="890pt" height="445pt" viewBox="0 0 890 445"
	xmlns="http://www.w3.org/2000/svg"
	xmlns:xlink="http://www.w3.org/1999/xlink">
<g transform="scale(1, -1) translate(0, -445)">
<path d="M0,0L890,0L890,445L0,445Z" style="fill:#FFFFFF" />
<text x="309.93" y="-433.45" transform="scale(1, -1)"
	style="font-family:Times;font-weight:normal;font-style:normal;font-size:12px">BenchmarkCorrectness/size=1000000/digest=influxdata</text>
<text x="457.53" y="-3.8613" transform="scale(1, -1)"
	style="font-family:Times;font-weight:normal;font-style:normal;font-size:12px">source</text>
<text x="122.5" y="-15.602" transform="scale(1, -1)"
	style="font-family:Times;font-weight:normal;font-style:normal;font-size:10px">rand</text>
<text x="335.93" y="-15.602" transform="scale(1, -1)"
	style="font-family:Times;font-weight:normal;font-style:normal;font-size:10px">exponential</text>
<text x="572.96" y="-15.602" transform="scale(1, -1)"
	style="font-family:Times;font-weight:normal;font-style:normal;font-size:10px">normal</text>
<text x="798.06" y="-15.602" transform="scale(1, -1)"
	style="font-family:Times;font-weight:normal;font-style:normal;font-size:10px">tailspike</text>
<g transform="rotate(90)">
<text x="200.7" y="11.555" transform="scale(1, -1)"
	style="font-family:Times;font-weight:normal;font-style:normal;font-size:12px">%difference</text>
</g>
<text x="15.416" y="-52.561" transform="scale(1, -1)"
	style="font-family:Times;font-weight:normal;font-style:normal;font-size:10px">-0.02</text>
<text x="15.416" y="-221.63" transform="scale(1, -1)"
	style="font-family:Times;font-weight:normal;font-style:normal;font-size:10px">-0.01</text>
<text x="31.246" y="-390.71" transform="scale(1, -1)"
	style="font-family:Times;font-weight:normal;font-style:normal;font-size:10px">0</text>
<path d="M38.746,57.282L46.746,57.282" style="fill:none;stroke:#000000;stroke-width:0.5" />
<path d="M38.746,226.36L46.746,226.36" style="fill:none;stroke:#000000;stroke-width:0.5" />
<path d="M38.746,395.43L46.746,395.43" style="fill:none;stroke:#000000;stroke-width:0.5" />
<path d="M42.746,91.097L46.746,91.097" style="fill:none;stroke:#000000;stroke-width:0.5" />
<path d="M42.746,124.91L46.746,124.91" style="fill:none;stroke:#000000;stroke-width:0.5" />
<path d="M42.746,158.73L46.746,158.73" style="fill:none;stroke:#000000;stroke-width:0.5" />
<path d="M42.746,192.54L46.746,192.54" style="fill:none;stroke:#000000;stroke-width:0.5" />
<path d="M42.746,260.17L46.746,260.17" style="fill:none;stroke:#000000;stroke-width:0.5" />
<path d="M42.746,293.99L46.746,293.99" style="fill:none;stroke:#000000;stroke-width:0.5" />
<path d="M42.746,327.8L46.746,327.8" style="fill:none;stroke:#000000;stroke-width:0.5" />
<path d="M42.746,361.62L46.746,361.62" style="fill:none;stroke:#000000;stroke-width:0.5" />
<path d="M42.746,429.25L46.746,429.25" style="fill:none;stroke:#000000;stroke-width:0.5" />
<path d="M46.746,30.23L46.746,429.58" style="fill:none;stroke:#000000;stroke-width:0.5" />
<path d="M56.38,395.43L56.38,383.12L86.38,383.12L86.38,395.43Z" style="fill:#F15A60" />
<path d="M284.25,395.43L284.25,400.25L314.25,400.25L314.25,395.43Z" style="fill:#F15A60" />
<path d="M512.13,395.43L512.13,343.02L542.13,343.02L542.13,395.43Z" style="fill:#F15A60" />
<path d="M740,395.43L740,413.35L770,413.35L770,395.43Z" style="fill:#F15A60" />
<path d="M86.38,395.43L86.38,363.14L116.38,363.14L116.38,395.43Z" style="fill:#7AC36A" />
<path d="M314.25,395.43L314.25,420.62L344.25,420.62L344.25,395.43Z" style="fill:#7AC36A" />
<path d="M542.13,395.43L542.13,379.17L572.13,379.17L572.13,395.43Z" style="fill:#7AC36A" />
<path d="M770,395.43L770,368.38L800,368.38L800,395.43Z" style="fill:#7AC36A" />
<path d="M116.38,395.43L116.38,396.34L146.38,396.34L146.38,395.43Z" style="fill:#5A9BD4" />
<path d="M344.25,395.43L344.25,429.58L374.25,429.58L374.25,395.43Z" style="fill:#5A9BD4" />
<path d="M572.13,395.43L572.13,392.81L602.13,392.81L602.13,395.43Z" style="fill:#5A9BD4" />
<path d="M800,395.43L800,30.23L830,30.23L830,395.43Z" style="fill:#5A9BD4" />
<path d="M146.38,395.43L146.38,398.54L176.38,398.54L176.38,395.43Z" style="fill:#FAA75B" />
<path d="M374.25,395.43L374.25,377.17L404.25,377.17L404.25,395.43Z" style="fill:#FAA75B" />
<path d="M602.13,395.43L602.13,408.65L632.13,408.65L632.13,395.43Z" style="fill:#FAA75B" />
<path d="M830,395.43L830,372.44L860,372.44L860,395.43Z" style="fill:#FAA75B" />
<path d="M176.38,395.43L176.38,395.94L206.38,395.94L206.38,395.43Z" style="fill:#9E67AB" />
<path d="M404.25,395.43L404.25,418.09L434.25,418.09L434.25,395.43Z" style="fill:#9E67AB" />
<path d="M632.13,395.43L632.13,404.22L662.13,404.22L662.13,395.43Z" style="fill:#9E67AB" />
<path d="M860,395.43L860,387.1L890,387.1L890,395.43Z" style="fill:#9E67AB" />
<path d="M870,417.81L870,429.58L890,429.58L890,417.81Z" style="fill:#F15A60" />
<text x="822" y="-418.03" transform="scale(1, -1)"
	style="font-family:Times;font-weight:normal;font-style:normal;font-size:12px">0.100000</text>
<path d="M870,406.03L870,417.81L890,417.81L890,406.03Z" style="fill:#7AC36A" />
<text x="822" y="-406.25" transform="scale(1, -1)"
	style="font-family:Times;font-weight:normal;font-style:normal;font-size:12px">0.500000</text>
<path d="M870,394.25L870,406.03L890,406.03L890,394.25Z" style="fill:#5A9BD4" />
<text x="822" y="-394.47" transform="scale(1, -1)"
	style="font-family:Times;font-weight:normal;font-style:normal;font-size:12px">0.900000</text>
<path d="M870,382.47L870,394.25L890,394.25L890,382.47Z" style="fill:#FAA75B" />
<text x="822" y="-382.7" transform="scale(1, -1)"
	style="font-family:Times;font-weight:normal;font-style:normal;font-size:12px">0.990000</text>
<path d="M870,370.7L870,382.47L890,382.47L890,370.7Z" style="fill:#9E67AB" />
<text x="822" y="-370.92" transform="scale(1, -1)"
	style="font-family:Times;font-weight:normal;font-style:normal;font-size:12px">0.999000</text>
</g>
</svg>
