<?xml version="1.0"?>
<!-- Generated by SVGo and Plotinum VG -->
<svg width="770pt" height="385pt" viewBox="0 0 770 385"
	xmlns="http://www.w3.org/2000/svg"
	xmlns:xlink="http://www.w3.org/1999/xlink">
<g transform="scale(1, -1) translate(0, -385)">
<path d="M0,0L770,0L770,385L0,385Z" style="fill:#FFFFFF" />
<text x="246.76" y="-373.45" transform="scale(1, -1)"
	style="font-family:Times;font-weight:normal;font-style:normal;font-size:12px">BenchmarkCorrectness/size=1000000/quantile=0.900000</text>
<text x="410.03" y="-3.8613" transform="scale(1, -1)"
	style="font-family:Times;font-weight:normal;font-style:normal;font-size:12px">source</text>
<text x="117.5" y="-15.602" transform="scale(1, -1)"
	style="font-family:Times;font-weight:normal;font-style:normal;font-size:10px">rand</text>
<text x="302.6" y="-15.602" transform="scale(1, -1)"
	style="font-family:Times;font-weight:normal;font-style:normal;font-size:10px">exponential</text>
<text x="511.3" y="-15.602" transform="scale(1, -1)"
	style="font-family:Times;font-weight:normal;font-style:normal;font-size:10px">normal</text>
<text x="708.06" y="-15.602" transform="scale(1, -1)"
	style="font-family:Times;font-weight:normal;font-style:normal;font-size:10px">tailspike</text>
<g transform="rotate(90)">
<text x="170.7" y="11.555" transform="scale(1, -1)"
	style="font-family:Times;font-weight:normal;font-style:normal;font-size:12px">%difference</text>
</g>
<text x="15.416" y="-48.757" transform="scale(1, -1)"
	style="font-family:Times;font-weight:normal;font-style:normal;font-size:10px">-0.4</text>
<text x="18.746" y="-187.55" transform="scale(1, -1)"
	style="font-family:Times;font-weight:normal;font-style:normal;font-size:10px">0.0</text>
<text x="18.746" y="-326.35" transform="scale(1, -1)"
	style="font-family:Times;font-weight:normal;font-style:normal;font-size:10px">0.4</text>
<path d="M33.746,53.479L41.746,53.479" style="fill:none;stroke:#000000;stroke-width:0.5" />
<path d="M33.746,192.27L41.746,192.27" style="fill:none;stroke:#000000;stroke-width:0.5" />
<path d="M33.746,331.07L41.746,331.07" style="fill:none;stroke:#000000;stroke-width:0.5" />
<path d="M37.746,88.177L41.746,88.177" style="fill:none;stroke:#000000;stroke-width:0.5" />
<path d="M37.746,122.88L41.746,122.88" style="fill:none;stroke:#000000;stroke-width:0.5" />
<path d="M37.746,157.57L41.746,157.57" style="fill:none;stroke:#000000;stroke-width:0.5" />
<path d="M37.746,226.97L41.746,226.97" style="fill:none;stroke:#000000;stroke-width:0.5" />
<path d="M37.746,261.67L41.746,261.67" style="fill:none;stroke:#000000;stroke-width:0.5" />
<path d="M37.746,296.37L41.746,296.37" style="fill:none;stroke:#000000;stroke-width:0.5" />
<path d="M37.746,365.77L41.746,365.77" style="fill:none;stroke:#000000;stroke-width:0.5" />
<path d="M41.746,30.23L41.746,369.58" style="fill:none;stroke:#000000;stroke-width:0.5" />
<path d="M51.38,192.27L51.38,192.41L81.38,192.41L81.38,192.27Z" style="fill:#F15A60" />
<path d="M250.92,192.27L250.92,192.39L280.92,192.39L280.92,192.27Z" style="fill:#F15A60" />
<path d="M450.46,192.27L450.46,192.22L480.46,192.22L480.46,192.27Z" style="fill:#F15A60" />
<path d="M650,192.27L650,192.26L680,192.26L680,192.27Z" style="fill:#F15A60" />
<path d="M81.38,192.27L81.38,92.341L111.38,92.341L111.38,192.27Z" style="fill:#7AC36A" />
<path d="M280.92,192.27L280.92,369.58L310.92,369.58L310.92,192.27Z" style="fill:#7AC36A" />
<path d="M480.46,192.27L480.46,30.23L510.46,30.23L510.46,192.27Z" style="fill:#7AC36A" />
<path d="M680,192.27L680,184.74L710,184.74L710,192.27Z" style="fill:#7AC36A" />
<path d="M111.38,192.27L111.38,192.29L141.38,192.29L141.38,192.27Z" style="fill:#5A9BD4" />
<path d="M310.92,192.27L310.92,192.97L340.92,192.97L340.92,192.27Z" style="fill:#5A9BD4" />
<path d="M510.46,192.27L510.46,192.22L540.46,192.22L540.46,192.27Z" style="fill:#5A9BD4" />
<path d="M710,192.27L710,184.78L740,184.78L740,192.27Z" style="fill:#5A9BD4" />
<path d="M141.38,192.27L141.38,68.399L171.38,68.399L171.38,192.27Z" style="fill:#FAA75B" />
<path d="M340.92,192.27L340.92,64.929L370.92,64.929L370.92,192.27Z" style="fill:#FAA75B" />
<path d="M540.46,192.27L540.46,238.42L570.46,238.42L570.46,192.27Z" style="fill:#FAA75B" />
<path d="M740,192.27L740,184.78L770,184.78L770,192.27Z" style="fill:#FAA75B" />
<path d="M750,357.81L750,369.58L770,369.58L770,357.81Z" style="fill:#F15A60" />
<text x="727.01" y="-358.03" transform="scale(1, -1)"
	style="font-family:Times;font-weight:normal;font-style:normal;font-size:12px">caio</text>
<path d="M750,346.03L750,357.81L770,357.81L770,346.03Z" style="fill:#7AC36A" />
<text x="697.68" y="-346.25" transform="scale(1, -1)"
	style="font-family:Times;font-weight:normal;font-style:normal;font-size:12px">segmentio</text>
<path d="M750,334.25L750,346.03L770,346.03L770,334.25Z" style="fill:#5A9BD4" />
<text x="698.35" y="-334.47" transform="scale(1, -1)"
	style="font-family:Times;font-weight:normal;font-style:normal;font-size:12px">influxdata</text>
<path d="M750,322.47L750,334.25L770,334.25L770,322.47Z" style="fill:#FAA75B" />
<text x="705.67" y="-322.7" transform="scale(1, -1)"
	style="font-family:Times;font-weight:normal;font-style:normal;font-size:12px">lightstep</text>
</g>
</svg>
