<?xml version="1.0"?>
<!-- Generated by SVGo and Plotinum VG -->
<svg width="440pt" height="220pt" viewBox="0 0 440 220"
	xmlns="http://www.w3.org/2000/svg"
	xmlns:xlink="http://www.w3.org/1999/xlink">
<g transform="scale(1, -1) translate(0, -220)">
<path d="M0,0L440,0L440,220L0,220Z" style="fill:#FFFFFF" />
<text x="35.896" y="-208.45" transform="scale(1, -1)"
	style="font-family:Times;font-weight:normal;font-style:normal;font-size:12px">BenchmarkCorrectness/size=1000000/source=exponential/digest=segmentio</text>
<text x="230.26" y="-3.8613" transform="scale(1, -1)"
	style="font-family:Times;font-weight:normal;font-style:normal;font-size:12px">quantile</text>
<text x="59.166" y="-15.602" transform="scale(1, -1)"
	style="font-family:Times;font-weight:normal;font-style:normal;font-size:10px">0.100000</text>
<text x="145" y="-15.602" transform="scale(1, -1)"
	style="font-family:Times;font-weight:normal;font-style:normal;font-size:10px">0.500000</text>
<text x="230.83" y="-15.602" transform="scale(1, -1)"
	style="font-family:Times;font-weight:normal;font-style:normal;font-size:10px">0.900000</text>
<text x="316.67" y="-15.602" transform="scale(1, -1)"
	style="font-family:Times;font-weight:normal;font-style:normal;font-size:10px">0.990000</text>
<text x="402.5" y="-15.602" transform="scale(1, -1)"
	style="font-family:Times;font-weight:normal;font-style:normal;font-size:10px">0.999000</text>
<g transform="rotate(90)">
<text x="88.204" y="11.555" transform="scale(1, -1)"
	style="font-family:Times;font-weight:normal;font-style:normal;font-size:12px">%difference</text>
</g>
<text x="27.916" y="-25.509" transform="scale(1, -1)"
	style="font-family:Times;font-weight:normal;font-style:normal;font-size:10px">0</text>
<text x="15.416" y="-102.66" transform="scale(1, -1)"
	style="font-family:Times;font-weight:normal;font-style:normal;font-size:10px">0.03</text>
<text x="15.416" y="-179.8" transform="scale(1, -1)"
	style="font-family:Times;font-weight:normal;font-style:normal;font-size:10px">0.06</text>
<path d="M35.416,30.23L43.416,30.23" style="fill:none;stroke:#000000;stroke-width:0.5" />
<path d="M35.416,107.38L43.416,107.38" style="fill:none;stroke:#000000;stroke-width:0.5" />
<path d="M35.416,184.53L43.416,184.53" style="fill:none;stroke:#000000;stroke-width:0.5" />
<path d="M39.416,55.946L43.416,55.946" style="fill:none;stroke:#000000;stroke-width:0.5" />
<path d="M39.416,81.662L43.416,81.662" style="fill:none;stroke:#000000;stroke-width:0.5" />
<path d="M39.416,133.09L43.416,133.09" style="fill:none;stroke:#000000;stroke-width:0.5" />
<path d="M39.416,158.81L43.416,158.81" style="fill:none;stroke:#000000;stroke-width:0.5" />
<path d="M43.416,30.23L43.416,204.58" style="fill:none;stroke:#000000;stroke-width:0.5" />
<path d="M62.916,30.23L62.916,33.239L92.916,33.239L92.916,30.23Z" style="fill:#F15A60" />
<path d="M148.75,30.23L148.75,32.344L178.75,32.344L178.75,30.23Z" style="fill:#F15A60" />
<path d="M234.58,30.23L234.58,163.44L264.58,163.44L264.58,30.23Z" style="fill:#F15A60" />
<path d="M320.42,30.23L320.42,116.89L350.42,116.89L350.42,30.23Z" style="fill:#F15A60" />
<path d="M406.25,30.23L406.25,204.58L436.25,204.58L436.25,30.23Z" style="fill:#F15A60" />
<path d="M420,204.58L420,204.58L440,204.58L440,204.58Z" style="fill:#F15A60" />
</g>
</svg>
