<?xml version="1.0"?>
<!-- Generated by SVGo and Plotinum VG -->
<svg width="1040pt" height="520pt" viewBox="0 0 1040 520"
	xmlns="http://www.w3.org/2000/svg"
	xmlns:xlink="http://www.w3.org/1999/xlink">
<g transform="scale(1, -1) translate(0, -520)">
<path d="M0,0L1040,0L1040,520L0,520Z" style="fill:#FFFFFF" />
<text x="399.26" y="-508.45" transform="scale(1, -1)"
	style="font-family:Times;font-weight:normal;font-style:normal;font-size:12px">BenchmarkCorrectness/size=1000000/digest=caio</text>
<text x="528.36" y="-3.8613" transform="scale(1, -1)"
	style="font-family:Times;font-weight:normal;font-style:normal;font-size:12px">source</text>
<text x="111.67" y="-15.602" transform="scale(1, -1)"
	style="font-family:Times;font-weight:normal;font-style:normal;font-size:10px">linear</text>
<text x="324.65" y="-15.602" transform="scale(1, -1)"
	style="font-family:Times;font-weight:normal;font-style:normal;font-size:10px">rand</text>
<text x="522.64" y="-15.602" transform="scale(1, -1)"
	style="font-family:Times;font-weight:normal;font-style:normal;font-size:10px">alternating</text>
<text x="731.19" y="-15.602" transform="scale(1, -1)"
	style="font-family:Times;font-weight:normal;font-style:normal;font-size:10px">exponential</text>
<text x="948.06" y="-15.602" transform="scale(1, -1)"
	style="font-family:Times;font-weight:normal;font-style:normal;font-size:10px">tailspike</text>
<g transform="rotate(90)">
<text x="238.2" y="11.555" transform="scale(1, -1)"
	style="font-family:Times;font-weight:normal;font-style:normal;font-size:12px">%difference</text>
</g>
<text x="20.416" y="-25.509" transform="scale(1, -1)"
	style="font-family:Times;font-weight:normal;font-style:normal;font-size:10px">0</text>
<text x="15.416" y="-210.8" transform="scale(1, -1)"
	style="font-family:Times;font-weight:normal;font-style:normal;font-size:10px">10</text>
<text x="15.416" y="-396.1" transform="scale(1, -1)"
	style="font-family:Times;font-weight:normal;font-style:normal;font-size:10px">20</text>
<path d="M27.916,30.23L35.916,30.23" style="fill:none;stroke:#000000;stroke-width:0.5" />
<path d="M27.916,215.52L35.916,215.52" style="fill:none;stroke:#000000;stroke-width:0.5" />
<path d="M27.916,400.82L35.916,400.82" style="fill:none;stroke:#000000;stroke-width:0.5" />
<path d="M31.916,67.289L35.916,67.289" style="fill:none;stroke:#000000;stroke-width:0.5" />
<path d="M31.916,104.35L35.916,104.35" style="fill:none;stroke:#000000;stroke-width:0.5" />
<path d="M31.916,141.41L35.916,141.41" style="fill:none;stroke:#000000;stroke-width:0.5" />
<path d="M31.916,178.47L35.916,178.47" style="fill:none;stroke:#000000;stroke-width:0.5" />
<path d="M31.916,252.58L35.916,252.58" style="fill:none;stroke:#000000;stroke-width:0.5" />
<path d="M31.916,289.64L35.916,289.64" style="fill:none;stroke:#000000;stroke-width:0.5" />
<path d="M31.916,326.7L35.916,326.7" style="fill:none;stroke:#000000;stroke-width:0.5" />
<path d="M31.916,363.76L35.916,363.76" style="fill:none;stroke:#000000;stroke-width:0.5" />
<path d="M31.916,437.88L35.916,437.88" style="fill:none;stroke:#000000;stroke-width:0.5" />
<path d="M31.916,474.94L35.916,474.94" style="fill:none;stroke:#000000;stroke-width:0.5" />
<path d="M35.916,30.23L35.916,504.58" style="fill:none;stroke:#000000;stroke-width:0.5" />
<path d="M48.048,30.23L48.048,504.58L78.048,504.58L78.048,30.23Z" style="fill:#F15A60" />
<path d="M258.54,30.23L258.54,30.231L288.54,30.231L288.54,30.23Z" style="fill:#F15A60" />
<path d="M469.02,30.23L469.02,30.23L499.02,30.23L499.02,30.23Z" style="fill:#F15A60" />
<path d="M679.51,30.23L679.51,30.23L709.51,30.23L709.51,30.23Z" style="fill:#F15A60" />
<path d="M890,30.23L890,30.23L920,30.23L920,30.23Z" style="fill:#F15A60" />
<path d="M78.048,30.23L78.048,39.903L108.05,39.903L108.05,30.23Z" style="fill:#7AC36A" />
<path d="M288.54,30.23L288.54,30.231L318.54,30.231L318.54,30.23Z" style="fill:#7AC36A" />
<path d="M499.02,30.23L499.02,30.23L529.02,30.23L529.02,30.23Z" style="fill:#7AC36A" />
<path d="M709.51,30.23L709.51,30.231L739.51,30.231L739.51,30.23Z" style="fill:#7AC36A" />
<path d="M920,30.23L920,30.231L950,30.231L950,30.23Z" style="fill:#7AC36A" />
<path d="M108.05,30.23L108.05,46.74L138.05,46.74L138.05,30.23Z" style="fill:#5A9BD4" />
<path d="M318.54,30.23L318.54,30.231L348.54,30.231L348.54,30.23Z" style="fill:#5A9BD4" />
<path d="M529.02,30.23L529.02,30.23L559.02,30.23L559.02,30.23Z" style="fill:#5A9BD4" />
<path d="M739.51,30.23L739.51,30.231L769.51,30.231L769.51,30.23Z" style="fill:#5A9BD4" />
<path d="M950,30.23L950,30.231L980,30.231L980,30.23Z" style="fill:#5A9BD4" />
<path d="M138.05,30.23L138.05,48.76L168.05,48.76L168.05,30.23Z" style="fill:#FAA75B" />
<path d="M348.54,30.23L348.54,30.23L378.54,30.23L378.54,30.23Z" style="fill:#FAA75B" />
<path d="M559.02,30.23L559.02,30.23L589.02,30.23L589.02,30.23Z" style="fill:#FAA75B" />
<path d="M769.51,30.23L769.51,30.233L799.51,30.233L799.51,30.23Z" style="fill:#FAA75B" />
<path d="M980,30.23L980,30.231L1010,30.231L1010,30.23Z" style="fill:#FAA75B" />
<path d="M168.05,30.23L168.05,48.741L198.05,48.741L198.05,30.23Z" style="fill:#9E67AB" />
<path d="M378.54,30.23L378.54,30.231L408.54,30.231L408.54,30.23Z" style="fill:#9E67AB" />
<path d="M589.02,30.23L589.02,30.23L619.02,30.23L619.02,30.23Z" style="fill:#9E67AB" />
<path d="M799.51,30.23L799.51,30.236L829.51,30.236L829.51,30.23Z" style="fill:#9E67AB" />
<path d="M1010,30.23L1010,30.231L1040,30.231L1040,30.23Z" style="fill:#9E67AB" />
<path d="M1020,492.81L1020,504.58L1040,504.58L1040,492.81Z" style="fill:#F15A60" />
<text x="972" y="-493.03" transform="scale(1, -1)"
	style="font-family:Times;font-weight:normal;font-style:normal;font-size:12px">0.100000</text>
<path d="M1020,481.03L1020,492.81L1040,492.81L1040,481.03Z" style="fill:#7AC36A" />
<text x="972" y="-481.25" transform="scale(1, -1)"
	style="font-family:Times;font-weight:normal;font-style:normal;font-size:12px">0.500000</text>
<path d="M1020,469.25L1020,481.03L1040,481.03L1040,469.25Z" style="fill:#5A9BD4" />
<text x="972" y="-469.47" transform="scale(1, -1)"
	style="font-family:Times;font-weight:normal;font-style:normal;font-size:12px">0.900000</text>
<path d="M1020,457.47L1020,469.25L1040,469.25L1040,457.47Z" style="fill:#FAA75B" />
<text x="972" y="-457.7" transform="scale(1, -1)"
	style="font-family:Times;font-weight:normal;font-style:normal;font-size:12px">0.990000</text>
<path d="M1020,445.7L1020,457.47L1040,457.47L1040,445.7Z" style="fill:#9E67AB" />
<text x="972" y="-445.92" transform="scale(1, -1)"
	style="font-family:Times;font-weight:normal;font-style:normal;font-size:12px">0.999000</text>
</g>
</svg>
