<?xml version="1.0"?>
<!-- Generated by SVGo and Plotinum VG -->
<svg width="770pt" height="385pt" viewBox="0 0 770 385"
	xmlns="http://www.w3.org/2000/svg"
	xmlns:xlink="http://www.w3.org/1999/xlink">
<g transform="scale(1, -1) translate(0, -385)">
<path d="M0,0L770,0L770,385L0,385Z" style="fill:#FFFFFF" />
<text x="246.76" y="-373.45" transform="scale(1, -1)"
	style="font-family:Times;font-weight:normal;font-style:normal;font-size:12px">BenchmarkCorrectness/size=1000000/quantile=0.990000</text>
<text x="410.03" y="-3.8613" transform="scale(1, -1)"
	style="font-family:Times;font-weight:normal;font-style:normal;font-size:12px">source</text>
<text x="117.5" y="-15.602" transform="scale(1, -1)"
	style="font-family:Times;font-weight:normal;font-style:normal;font-size:10px">rand</text>
<text x="302.6" y="-15.602" transform="scale(1, -1)"
	style="font-family:Times;font-weight:normal;font-style:normal;font-size:10px">exponential</text>
<text x="511.3" y="-15.602" transform="scale(1, -1)"
	style="font-family:Times;font-weight:normal;font-style:normal;font-size:10px">normal</text>
<text x="708.06" y="-15.602" transform="scale(1, -1)"
	style="font-family:Times;font-weight:normal;font-style:normal;font-size:10px">tailspike</text>
<g transform="rotate(90)">
<text x="170.7" y="11.555" transform="scale(1, -1)"
	style="font-family:Times;font-weight:normal;font-style:normal;font-size:12px">%difference</text>
</g>
<text x="15.416" y="-42.675" transform="scale(1, -1)"
	style="font-family:Times;font-weight:normal;font-style:normal;font-size:10px">-0.1</text>
<text x="18.746" y="-174.72" transform="scale(1, -1)"
	style="font-family:Times;font-weight:normal;font-style:normal;font-size:10px">0.0</text>
<text x="18.746" y="-306.76" transform="scale(1, -1)"
	style="font-family:Times;font-weight:normal;font-style:normal;font-size:10px">0.1</text>
<path d="M33.746,47.396L41.746,47.396" style="fill:none;stroke:#000000;stroke-width:0.5" />
<path d="M33.746,179.44L41.746,179.44" style="fill:none;stroke:#000000;stroke-width:0.5" />
<path d="M33.746,311.48L41.746,311.48" style="fill:none;stroke:#000000;stroke-width:0.5" />
<path d="M37.746,73.805L41.746,73.805" style="fill:none;stroke:#000000;stroke-width:0.5" />
<path d="M37.746,100.21L41.746,100.21" style="fill:none;stroke:#000000;stroke-width:0.5" />
<path d="M37.746,126.62L41.746,126.62" style="fill:none;stroke:#000000;stroke-width:0.5" />
<path d="M37.746,153.03L41.746,153.03" style="fill:none;stroke:#000000;stroke-width:0.5" />
<path d="M37.746,205.85L41.746,205.85" style="fill:none;stroke:#000000;stroke-width:0.5" />
<path d="M37.746,232.26L41.746,232.26" style="fill:none;stroke:#000000;stroke-width:0.5" />
<path d="M37.746,258.67L41.746,258.67" style="fill:none;stroke:#000000;stroke-width:0.5" />
<path d="M37.746,285.08L41.746,285.08" style="fill:none;stroke:#000000;stroke-width:0.5" />
<path d="M37.746,337.89L41.746,337.89" style="fill:none;stroke:#000000;stroke-width:0.5" />
<path d="M37.746,364.3L41.746,364.3" style="fill:none;stroke:#000000;stroke-width:0.5" />
<path d="M41.746,30.23L41.746,369.58" style="fill:none;stroke:#000000;stroke-width:0.5" />
<path d="M51.38,179.44L51.38,179.58L81.38,179.58L81.38,179.44Z" style="fill:#F15A60" />
<path d="M250.92,179.44L250.92,179.42L280.92,179.42L280.92,179.44Z" style="fill:#F15A60" />
<path d="M450.46,179.44L450.46,179.54L480.46,179.54L480.46,179.44Z" style="fill:#F15A60" />
<path d="M650,179.44L650,178.8L680,178.8L680,179.44Z" style="fill:#F15A60" />
<path d="M81.38,179.44L81.38,55.451L111.38,55.451L111.38,179.44Z" style="fill:#7AC36A" />
<path d="M280.92,179.44L280.92,139.83L310.92,139.83L310.92,179.44Z" style="fill:#7AC36A" />
<path d="M480.46,179.44L480.46,124.38L510.46,124.38L510.46,179.44Z" style="fill:#7AC36A" />
<path d="M680,179.44L680,111.04L710,111.04L710,179.44Z" style="fill:#7AC36A" />
<path d="M111.38,179.44L111.38,179.68L141.38,179.68L141.38,179.44Z" style="fill:#5A9BD4" />
<path d="M310.92,179.44L310.92,178.01L340.92,178.01L340.92,179.44Z" style="fill:#5A9BD4" />
<path d="M510.46,179.44L510.46,180.47L540.46,180.47L540.46,179.44Z" style="fill:#5A9BD4" />
<path d="M710,179.44L710,177.64L740,177.64L740,179.44Z" style="fill:#5A9BD4" />
<path d="M141.38,179.44L141.38,108.53L171.38,108.53L171.38,179.44Z" style="fill:#FAA75B" />
<path d="M340.92,179.44L340.92,30.23L370.92,30.23L370.92,179.44Z" style="fill:#FAA75B" />
<path d="M540.46,179.44L540.46,228.43L570.46,228.43L570.46,179.44Z" style="fill:#FAA75B" />
<path d="M740,179.44L740,369.58L770,369.58L770,179.44Z" style="fill:#FAA75B" />
<path d="M750,357.81L750,369.58L770,369.58L770,357.81Z" style="fill:#F15A60" />
<text x="727.01" y="-358.03" transform="scale(1, -1)"
	style="font-family:Times;font-weight:normal;font-style:normal;font-size:12px">caio</text>
<path d="M750,346.03L750,357.81L770,357.81L770,346.03Z" style="fill:#7AC36A" />
<text x="697.68" y="-346.25" transform="scale(1, -1)"
	style="font-family:Times;font-weight:normal;font-style:normal;font-size:12px">segmentio</text>
<path d="M750,334.25L750,346.03L770,346.03L770,334.25Z" style="fill:#5A9BD4" />
<text x="698.35" y="-334.47" transform="scale(1, -1)"
	style="font-family:Times;font-weight:normal;font-style:normal;font-size:12px">influxdata</text>
<path d="M750,322.47L750,334.25L770,334.25L770,322.47Z" style="fill:#FAA75B" />
<text x="705.67" y="-322.7" transform="scale(1, -1)"
	style="font-family:Times;font-weight:normal;font-style:normal;font-size:12px">lightstep</text>
</g>
</svg>
