<?xml version="1.0"?>
<!-- Generated by SVGo and Plotinum VG -->
<svg width="2690pt" height="1345pt" viewBox="0 0 2690 1345"
	xmlns="http://www.w3.org/2000/svg"
	xmlns:xlink="http://www.w3.org/1999/xlink">
<g transform="scale(1, -1) translate(0, -1345)">
<path d="M0,0L2690,0L2690,1345L0,1345Z" style="fill:#FFFFFF" />
<text x="1253.6" y="-1333.4" transform="scale(1, -1)"
	style="font-family:Times;font-weight:normal;font-style:normal;font-size:12px">BenchmarkCorrectness/size=1000000</text>
<text x="1371.1" y="-3.8613" transform="scale(1, -1)"
	style="font-family:Times;font-weight:normal;font-style:normal;font-size:12px">digest</text>
<text x="357.5" y="-15.602" transform="scale(1, -1)"
	style="font-family:Times;font-weight:normal;font-style:normal;font-size:10px">caio</text>
<text x="1025" y="-15.602" transform="scale(1, -1)"
	style="font-family:Times;font-weight:normal;font-style:normal;font-size:10px">segmentio</text>
<text x="1705" y="-15.602" transform="scale(1, -1)"
	style="font-family:Times;font-weight:normal;font-style:normal;font-size:10px">influxdata</text>
<text x="2387.8" y="-15.602" transform="scale(1, -1)"
	style="font-family:Times;font-weight:normal;font-style:normal;font-size:10px">lightstep</text>
<g transform="rotate(90)">
<text x="650.7" y="11.555" transform="scale(1, -1)"
	style="font-family:Times;font-weight:normal;font-style:normal;font-size:12px">%difference</text>
</g>
<text x="15.416" y="-27.172" transform="scale(1, -1)"
	style="font-family:Times;font-weight:normal;font-style:normal;font-size:10px">-0.5</text>
<text x="18.746" y="-443.1" transform="scale(1, -1)"
	style="font-family:Times;font-weight:normal;font-style:normal;font-size:10px">0.0</text>
<text x="18.746" y="-859.02" transform="scale(1, -1)"
	style="font-family:Times;font-weight:normal;font-style:normal;font-size:10px">0.5</text>
<text x="18.746" y="-1275" transform="scale(1, -1)"
	style="font-family:Times;font-weight:normal;font-style:normal;font-size:10px">1.0</text>
<path d="M33.746,31.894L41.746,31.894" style="fill:none;stroke:#000000;stroke-width:0.5" />
<path d="M33.746,447.82L41.746,447.82" style="fill:none;stroke:#000000;stroke-width:0.5" />
<path d="M33.746,863.75L41.746,863.75" style="fill:none;stroke:#000000;stroke-width:0.5" />
<path d="M33.746,1279.7L41.746,1279.7" style="fill:none;stroke:#000000;stroke-width:0.5" />
<path d="M37.746,115.08L41.746,115.08" style="fill:none;stroke:#000000;stroke-width:0.5" />
<path d="M37.746,198.26L41.746,198.26" style="fill:none;stroke:#000000;stroke-width:0.5" />
<path d="M37.746,281.45L41.746,281.45" style="fill:none;stroke:#000000;stroke-width:0.5" />
<path d="M37.746,364.64L41.746,364.64" style="fill:none;stroke:#000000;stroke-width:0.5" />
<path d="M37.746,531.01L41.746,531.01" style="fill:none;stroke:#000000;stroke-width:0.5" />
<path d="M37.746,614.19L41.746,614.19" style="fill:none;stroke:#000000;stroke-width:0.5" />
<path d="M37.746,697.38L41.746,697.38" style="fill:none;stroke:#000000;stroke-width:0.5" />
<path d="M37.746,780.56L41.746,780.56" style="fill:none;stroke:#000000;stroke-width:0.5" />
<path d="M37.746,946.93L41.746,946.93" style="fill:none;stroke:#000000;stroke-width:0.5" />
<path d="M37.746,1030.1L41.746,1030.1" style="fill:none;stroke:#000000;stroke-width:0.5" />
<path d="M37.746,1113.3L41.746,1113.3" style="fill:none;stroke:#000000;stroke-width:0.5" />
<path d="M37.746,1196.5L41.746,1196.5" style="fill:none;stroke:#000000;stroke-width:0.5" />
<path d="M41.746,30.23L41.746,1329.6" style="fill:none;stroke:#000000;stroke-width:0.5" />
<path d="M50.824,447.82L50.824,447.49L80.824,447.49L80.824,447.82Z" style="fill:#F15A60" />
<path d="M730.55,447.82L730.55,445.69L760.55,445.69L760.55,447.82Z" style="fill:#F15A60" />
<path d="M1410.3,447.82L1410.3,447.21L1440.3,447.21L1440.3,447.82Z" style="fill:#F15A60" />
<path d="M2090,447.82L2090,442.29L2120,442.29L2120,447.82Z" style="fill:#F15A60" />
<path d="M80.824,447.82L80.824,447.39L110.82,447.39L110.82,447.82Z" style="fill:#7AC36A" />
<path d="M760.55,447.82L760.55,671.59L790.55,671.59L790.55,447.82Z" style="fill:#7AC36A" />
<path d="M1440.3,447.82L1440.3,446.23L1470.3,446.23L1470.3,447.82Z" style="fill:#7AC36A" />
<path d="M2120,447.82L2120,693.22L2150,693.22L2150,447.82Z" style="fill:#7AC36A" />
<path d="M110.82,447.82L110.82,448.15L140.82,448.15L140.82,447.82Z" style="fill:#5A9BD4" />
<path d="M790.55,447.82L790.55,208.25L820.55,208.25L820.55,447.82Z" style="fill:#5A9BD4" />
<path d="M1470.3,447.82L1470.3,447.87L1500.3,447.87L1500.3,447.82Z" style="fill:#5A9BD4" />
<path d="M2150,447.82L2150,150.85L2180,150.85L2180,447.82Z" style="fill:#5A9BD4" />
<path d="M140.82,447.82L140.82,447.91L170.82,447.91L170.82,447.82Z" style="fill:#FAA75B" />
<path d="M820.55,447.82L820.55,369.71L850.55,369.71L850.55,447.82Z" style="fill:#FAA75B" />
<path d="M1500.3,447.82L1500.3,447.97L1530.3,447.97L1530.3,447.82Z" style="fill:#FAA75B" />
<path d="M2180,447.82L2180,403.15L2210,403.15L2210,447.82Z" style="fill:#FAA75B" />
<path d="M170.82,447.82L170.82,447.87L200.82,447.87L200.82,447.82Z" style="fill:#9E67AB" />
<path d="M850.55,447.82L850.55,447.23L880.55,447.23L880.55,447.82Z" style="fill:#9E67AB" />
<path d="M1530.3,447.82L1530.3,447.85L1560.3,447.85L1560.3,447.82Z" style="fill:#9E67AB" />
<path d="M2210,447.82L2210,466.87L2240,466.87L2240,447.82Z" style="fill:#9E67AB" />
<path d="M200.82,447.82L200.82,447.89L230.82,447.89L230.82,447.82Z" style="fill:#CE7058" />
<path d="M880.55,447.82L880.55,535.16L910.55,535.16L910.55,447.82Z" style="fill:#CE7058" />
<path d="M1560.3,447.82L1560.3,448.06L1590.3,448.06L1590.3,447.82Z" style="fill:#CE7058" />
<path d="M2240,447.82L2240,680.74L2270,680.74L2270,447.82Z" style="fill:#CE7058" />
<path d="M230.82,447.82L230.82,449.04L260.82,449.04L260.82,447.82Z" style="fill:#D77FB4" />
<path d="M910.55,447.82L910.55,412.97L940.55,412.97L940.55,447.82Z" style="fill:#D77FB4" />
<path d="M1590.3,447.82L1590.3,449.06L1620.3,449.06L1620.3,447.82Z" style="fill:#D77FB4" />
<path d="M2270,447.82L2270,300.58L2300,300.58L2300,447.82Z" style="fill:#D77FB4" />
<path d="M260.82,447.82L260.82,448.09L290.82,448.09L290.82,447.82Z" style="fill:#F15A60" />
<path d="M940.55,447.82L940.55,872.9L970.55,872.9L970.55,447.82Z" style="fill:#F15A60" />
<path d="M1620.3,447.82L1620.3,449.5L1650.3,449.5L1650.3,447.82Z" style="fill:#F15A60" />
<path d="M2300,447.82L2300,142.53L2330,142.53L2330,447.82Z" style="fill:#F15A60" />
<path d="M290.82,447.82L290.82,447.81L320.82,447.81L320.82,447.82Z" style="fill:#7AC36A" />
<path d="M970.55,447.82L970.55,422.86L1000.5,422.86L1000.5,447.82Z" style="fill:#7AC36A" />
<path d="M1650.3,447.82L1650.3,446.92L1680.3,446.92L1680.3,447.82Z" style="fill:#7AC36A" />
<path d="M2330,447.82L2330,353.82L2360,353.82L2360,447.82Z" style="fill:#7AC36A" />
<path d="M320.82,447.82L320.82,447.92L350.82,447.92L350.82,447.82Z" style="fill:#5A9BD4" />
<path d="M1000.5,447.82L1000.5,439.93L1030.5,439.93L1030.5,447.82Z" style="fill:#5A9BD4" />
<path d="M1680.3,447.82L1680.3,448.94L1710.3,448.94L1710.3,447.82Z" style="fill:#5A9BD4" />
<path d="M2360,447.82L2360,448.59L2390,448.59L2390,447.82Z" style="fill:#5A9BD4" />
<path d="M350.82,447.82L350.82,447.89L380.82,447.89L380.82,447.82Z" style="fill:#FAA75B" />
<path d="M1030.5,447.82L1030.5,754.77L1060.5,754.77L1060.5,447.82Z" style="fill:#FAA75B" />
<path d="M1710.3,447.82L1710.3,445.24L1740.3,445.24L1740.3,447.82Z" style="fill:#FAA75B" />
<path d="M2390,447.82L2390,433.18L2420,433.18L2420,447.82Z" style="fill:#FAA75B" />
<path d="M380.82,447.82L380.82,447.74L410.82,447.74L410.82,447.82Z" style="fill:#9E67AB" />
<path d="M1060.5,447.82L1060.5,1329.6L1090.5,1329.6L1090.5,447.82Z" style="fill:#9E67AB" />
<path d="M1740.3,447.82L1740.3,447.02L1770.3,447.02L1770.3,447.82Z" style="fill:#9E67AB" />
<path d="M2420,447.82L2420,30.23L2450,30.23L2450,447.82Z" style="fill:#9E67AB" />
<path d="M410.82,447.82L410.82,447.69L440.82,447.69L440.82,447.82Z" style="fill:#CE7058" />
<path d="M1090.5,447.82L1090.5,59.345L1120.5,59.345L1120.5,447.82Z" style="fill:#CE7058" />
<path d="M1770.3,447.82L1770.3,447.69L1800.3,447.69L1800.3,447.82Z" style="fill:#CE7058" />
<path d="M2450,447.82L2450,558.46L2480,558.46L2480,447.82Z" style="fill:#CE7058" />
<path d="M440.82,447.82L440.82,447.88L470.82,447.88L470.82,447.82Z" style="fill:#D77FB4" />
<path d="M1120.5,447.82L1120.5,413.13L1150.5,413.13L1150.5,447.82Z" style="fill:#D77FB4" />
<path d="M1800.3,447.82L1800.3,448.47L1830.3,448.47L1830.3,447.82Z" style="fill:#D77FB4" />
<path d="M2480,447.82L2480,478.68L2510,478.68L2510,447.82Z" style="fill:#D77FB4" />
<path d="M470.82,447.82L470.82,447.92L500.82,447.92L500.82,447.82Z" style="fill:#F15A60" />
<path d="M1150.5,447.82L1150.5,431.77L1180.5,431.77L1180.5,447.82Z" style="fill:#F15A60" />
<path d="M1830.3,447.82L1830.3,448.25L1860.3,448.25L1860.3,447.82Z" style="fill:#F15A60" />
<path d="M2510,447.82L2510,482.92L2540,482.92L2540,447.82Z" style="fill:#F15A60" />
<path d="M500.82,447.82L500.82,448.18L530.82,448.18L530.82,447.82Z" style="fill:#7AC36A" />
<path d="M1180.5,447.82L1180.5,390.76L1210.5,390.76L1210.5,447.82Z" style="fill:#7AC36A" />
<path d="M1860.3,447.82L1860.3,448.7L1890.3,448.7L1890.3,447.82Z" style="fill:#7AC36A" />
<path d="M2540,447.82L2540,669.09L2570,669.09L2570,447.82Z" style="fill:#7AC36A" />
<path d="M530.82,447.82L530.82,446.64L560.82,446.64L560.82,447.82Z" style="fill:#5A9BD4" />
<path d="M1210.5,447.82L1210.5,223.22L1240.5,223.22L1240.5,447.82Z" style="fill:#5A9BD4" />
<path d="M1890.3,447.82L1890.3,446.49L1920.3,446.49L1920.3,447.82Z" style="fill:#5A9BD4" />
<path d="M2570,447.82L2570,602.54L2600,602.54L2600,447.82Z" style="fill:#5A9BD4" />
<path d="M560.82,447.82L560.82,447.78L590.82,447.78L590.82,447.82Z" style="fill:#FAA75B" />
<path d="M1240.5,447.82L1240.5,429.77L1270.5,429.77L1270.5,447.82Z" style="fill:#FAA75B" />
<path d="M1920.3,447.82L1920.3,429.85L1950.3,429.85L1950.3,447.82Z" style="fill:#FAA75B" />
<path d="M2600,447.82L2600,429.85L2630,429.85L2630,447.82Z" style="fill:#FAA75B" />
<path d="M590.82,447.82L590.82,447.42L620.82,447.42L620.82,447.82Z" style="fill:#9E67AB" />
<path d="M1270.5,447.82L1270.5,404.73L1300.5,404.73L1300.5,447.82Z" style="fill:#9E67AB" />
<path d="M1950.3,447.82L1950.3,446.69L1980.3,446.69L1980.3,447.82Z" style="fill:#9E67AB" />
<path d="M2630,447.82L2630,567.61L2660,567.61L2660,447.82Z" style="fill:#9E67AB" />
<path d="M620.82,447.82L620.82,447.9L650.82,447.9L650.82,447.82Z" style="fill:#CE7058" />
<path d="M1300.5,447.82L1300.5,444.1L1330.5,444.1L1330.5,447.82Z" style="fill:#CE7058" />
<path d="M1980.3,447.82L1980.3,447.41L2010.3,447.41L2010.3,447.82Z" style="fill:#CE7058" />
<path d="M2660,447.82L2660,440.58L2690,440.58L2690,447.82Z" style="fill:#CE7058" />
<path d="M2670,1317.8L2670,1329.6L2690,1329.6L2690,1317.8Z" style="fill:#F15A60" />
<text x="2506.2" y="-1318" transform="scale(1, -1)"
	style="font-family:Times;font-weight:normal;font-style:normal;font-size:12px">[source=rand,quantile=0.100000]</text>
<path d="M2670,1306L2670,1317.8L2690,1317.8L2690,1306Z" style="fill:#7AC36A" />
<text x="2506.2" y="-1306.3" transform="scale(1, -1)"
	style="font-family:Times;font-weight:normal;font-style:normal;font-size:12px">[source=rand,quantile=0.500000]</text>
<path d="M2670,1294.3L2670,1306L2690,1306L2690,1294.3Z" style="fill:#5A9BD4" />
<text x="2506.2" y="-1294.5" transform="scale(1, -1)"
	style="font-family:Times;font-weight:normal;font-style:normal;font-size:12px">[source=rand,quantile=0.900000]</text>
<path d="M2670,1282.5L2670,1294.3L2690,1294.3L2690,1282.5Z" style="fill:#FAA75B" />
<text x="2506.2" y="-1282.7" transform="scale(1, -1)"
	style="font-family:Times;font-weight:normal;font-style:normal;font-size:12px">[source=rand,quantile=0.990000]</text>
<path d="M2670,1270.7L2670,1282.5L2690,1282.5L2690,1270.7Z" style="fill:#9E67AB" />
<text x="2506.2" y="-1270.9" transform="scale(1, -1)"
	style="font-family:Times;font-weight:normal;font-style:normal;font-size:12px">[source=rand,quantile=0.999000]</text>
<path d="M2670,1258.9L2670,1270.7L2690,1270.7L2690,1258.9Z" style="fill:#CE7058" />
<text x="2471.5" y="-1259.1" transform="scale(1, -1)"
	style="font-family:Times;font-weight:normal;font-style:normal;font-size:12px">[source=exponential,quantile=0.100000]</text>
<path d="M2670,1247.1L2670,1258.9L2690,1258.9L2690,1247.1Z" style="fill:#D77FB4" />
<text x="2471.5" y="-1247.4" transform="scale(1, -1)"
	style="font-family:Times;font-weight:normal;font-style:normal;font-size:12px">[source=exponential,quantile=0.500000]</text>
<path d="M2670,1235.4L2670,1247.1L2690,1247.1L2690,1235.4Z" style="fill:#F15A60" />
<text x="2471.5" y="-1235.6" transform="scale(1, -1)"
	style="font-family:Times;font-weight:normal;font-style:normal;font-size:12px">[source=exponential,quantile=0.900000]</text>
<path d="M2670,1223.6L2670,1235.4L2690,1235.4L2690,1223.6Z" style="fill:#7AC36A" />
<text x="2471.5" y="-1223.8" transform="scale(1, -1)"
	style="font-family:Times;font-weight:normal;font-style:normal;font-size:12px">[source=exponential,quantile=0.990000]</text>
<path d="M2670,1211.8L2670,1223.6L2690,1223.6L2690,1211.8Z" style="fill:#5A9BD4" />
<text x="2471.5" y="-1212" transform="scale(1, -1)"
	style="font-family:Times;font-weight:normal;font-style:normal;font-size:12px">[source=exponential,quantile=0.999000]</text>
<path d="M2670,1200L2670,1211.8L2690,1211.8L2690,1200Z" style="fill:#FAA75B" />
<text x="2493.5" y="-1200.3" transform="scale(1, -1)"
	style="font-family:Times;font-weight:normal;font-style:normal;font-size:12px">[source=normal,quantile=0.100000]</text>
<path d="M2670,1188.3L2670,1200L2690,1200L2690,1188.3Z" style="fill:#9E67AB" />
<text x="2493.5" y="-1188.5" transform="scale(1, -1)"
	style="font-family:Times;font-weight:normal;font-style:normal;font-size:12px">[source=normal,quantile=0.500000]</text>
<path d="M2670,1176.5L2670,1188.3L2690,1188.3L2690,1176.5Z" style="fill:#CE7058" />
<text x="2493.5" y="-1176.7" transform="scale(1, -1)"
	style="font-family:Times;font-weight:normal;font-style:normal;font-size:12px">[source=normal,quantile=0.900000]</text>
<path d="M2670,1164.7L2670,1176.5L2690,1176.5L2690,1164.7Z" style="fill:#D77FB4" />
<text x="2493.5" y="-1164.9" transform="scale(1, -1)"
	style="font-family:Times;font-weight:normal;font-style:normal;font-size:12px">[source=normal,quantile=0.990000]</text>
<path d="M2670,1152.9L2670,1164.7L2690,1164.7L2690,1152.9Z" style="fill:#F15A60" />
<text x="2493.5" y="-1153.1" transform="scale(1, -1)"
	style="font-family:Times;font-weight:normal;font-style:normal;font-size:12px">[source=normal,quantile=0.999000]</text>
<path d="M2670,1141.1L2670,1152.9L2690,1152.9L2690,1141.1Z" style="fill:#7AC36A" />
<text x="2486.8" y="-1141.4" transform="scale(1, -1)"
	style="font-family:Times;font-weight:normal;font-style:normal;font-size:12px">[source=tailspike,quantile=0.100000]</text>
<path d="M2670,1129.4L2670,1141.1L2690,1141.1L2690,1129.4Z" style="fill:#5A9BD4" />
<text x="2486.8" y="-1129.6" transform="scale(1, -1)"
	style="font-family:Times;font-weight:normal;font-style:normal;font-size:12px">[source=tailspike,quantile=0.500000]</text>
<path d="M2670,1117.6L2670,1129.4L2690,1129.4L2690,1117.6Z" style="fill:#FAA75B" />
<text x="2486.8" y="-1117.8" transform="scale(1, -1)"
	style="font-family:Times;font-weight:normal;font-style:normal;font-size:12px">[source=tailspike,quantile=0.900000]</text>
<path d="M2670,1105.8L2670,1117.6L2690,1117.6L2690,1105.8Z" style="fill:#9E67AB" />
<text x="2486.8" y="-1106" transform="scale(1, -1)"
	style="font-family:Times;font-weight:normal;font-style:normal;font-size:12px">[source=tailspike,quantile=0.990000]</text>
<path d="M2670,1094L2670,1105.8L2690,1105.8L2690,1094Z" style="fill:#CE7058" />
<text x="2486.8" y="-1094.3" transform="scale(1, -1)"
	style="font-family:Times;font-weight:normal;font-style:normal;font-size:12px">[source=tailspike,quantile=0.999000]</text>
</g>
</svg>
