<?xml version="1.0"?>
<!-- Generated by SVGo and Plotinum VG -->
<svg width="440pt" height="220pt" viewBox="0 0 440 220"
	xmlns="http://www.w3.org/2000/svg"
	xmlns:xlink="http://www.w3.org/1999/xlink">
<g transform="scale(1, -1) translate(0, -220)">
<path d="M0,0L440,0L440,220L0,220Z" style="fill:#FFFFFF" />
<text x="50.564" y="-208.45" transform="scale(1, -1)"
	style="font-family:Times;font-weight:normal;font-style:normal;font-size:12px">BenchmarkCorrectness/size=1000000/source=exponential/digest=caio</text>
<text x="235.26" y="-3.8613" transform="scale(1, -1)"
	style="font-family:Times;font-weight:normal;font-style:normal;font-size:12px">quantile</text>
<text x="69.166" y="-15.602" transform="scale(1, -1)"
	style="font-family:Times;font-weight:normal;font-style:normal;font-size:10px">0.100000</text>
<text x="152.5" y="-15.602" transform="scale(1, -1)"
	style="font-family:Times;font-weight:normal;font-style:normal;font-size:10px">0.500000</text>
<text x="235.83" y="-15.602" transform="scale(1, -1)"
	style="font-family:Times;font-weight:normal;font-style:normal;font-size:10px">0.900000</text>
<text x="319.17" y="-15.602" transform="scale(1, -1)"
	style="font-family:Times;font-weight:normal;font-style:normal;font-size:10px">0.990000</text>
<text x="402.5" y="-15.602" transform="scale(1, -1)"
	style="font-family:Times;font-weight:normal;font-style:normal;font-size:10px">0.999000</text>
<g transform="rotate(90)">
<text x="88.204" y="11.555" transform="scale(1, -1)"
	style="font-family:Times;font-weight:normal;font-style:normal;font-size:12px">%difference</text>
</g>
<text x="37.916" y="-27.386" transform="scale(1, -1)"
	style="font-family:Times;font-weight:normal;font-style:normal;font-size:10px">0</text>
<text x="15.416" y="-97.785" transform="scale(1, -1)"
	style="font-family:Times;font-weight:normal;font-style:normal;font-size:10px">0.0006</text>
<text x="15.416" y="-168.18" transform="scale(1, -1)"
	style="font-family:Times;font-weight:normal;font-style:normal;font-size:10px">0.0012</text>
<path d="M45.416,32.108L53.416,32.108" style="fill:none;stroke:#000000;stroke-width:0.5" />
<path d="M45.416,102.51L53.416,102.51" style="fill:none;stroke:#000000;stroke-width:0.5" />
<path d="M45.416,172.9L53.416,172.9" style="fill:none;stroke:#000000;stroke-width:0.5" />
<path d="M49.416,67.307L53.416,67.307" style="fill:none;stroke:#000000;stroke-width:0.5" />
<path d="M49.416,137.71L53.416,137.71" style="fill:none;stroke:#000000;stroke-width:0.5" />
<path d="M53.416,30.23L53.416,204.58" style="fill:none;stroke:#000000;stroke-width:0.5" />
<path d="M72.916,32.108L72.916,42.55L102.92,42.55L102.92,32.108Z" style="fill:#F15A60" />
<path d="M156.25,32.108L156.25,204.58L186.25,204.58L186.25,32.108Z" style="fill:#F15A60" />
<path d="M239.58,32.108L239.58,70.827L269.58,70.827L269.58,32.108Z" style="fill:#F15A60" />
<path d="M322.92,32.108L322.92,30.23L352.92,30.23L352.92,32.108Z" style="fill:#F15A60" />
<path d="M406.25,32.108L406.25,46.305L436.25,46.305L436.25,32.108Z" style="fill:#F15A60" />
<path d="M420,204.58L420,204.58L440,204.58L440,204.58Z" style="fill:#F15A60" />
</g>
</svg>
