<?xml version="1.0"?>
<!-- Generated by SVGo and Plotinum VG -->
<svg width="890pt" height="445pt" viewBox="0 0 890 445"
	xmlns="http://www.w3.org/2000/svg"
	xmlns:xlink="http://www.w3.org/1999/xlink">
<g transform="scale(1, -1) translate(0, -445)">
<path d="M0,0L890,0L890,445L0,445Z" style="fill:#FFFFFF" />
<text x="304.94" y="-433.45" transform="scale(1, -1)"
	style="font-family:Times;font-weight:normal;font-style:normal;font-size:12px">BenchmarkCorrectness/size=1000000/source=exponential</text>
<text x="458.58" y="-3.8613" transform="scale(1, -1)"
	style="font-family:Times;font-weight:normal;font-style:normal;font-size:12px">digest</text>
<text x="122.5" y="-15.602" transform="scale(1, -1)"
	style="font-family:Times;font-weight:normal;font-style:normal;font-size:10px">caio</text>
<text x="338.33" y="-15.602" transform="scale(1, -1)"
	style="font-family:Times;font-weight:normal;font-style:normal;font-size:10px">segmentio</text>
<text x="566.67" y="-15.602" transform="scale(1, -1)"
	style="font-family:Times;font-weight:normal;font-style:normal;font-size:10px">influxdata</text>
<text x="797.78" y="-15.602" transform="scale(1, -1)"
	style="font-family:Times;font-weight:normal;font-style:normal;font-size:10px">lightstep</text>
<g transform="rotate(90)">
<text x="200.7" y="11.555" transform="scale(1, -1)"
	style="font-family:Times;font-weight:normal;font-style:normal;font-size:12px">%difference</text>
</g>
<text x="15.416" y="-78.726" transform="scale(1, -1)"
	style="font-family:Times;font-weight:normal;font-style:normal;font-size:10px">-0.25</text>
<text x="18.746" y="-192.44" transform="scale(1, -1)"
	style="font-family:Times;font-weight:normal;font-style:normal;font-size:10px">0.00</text>
<text x="18.746" y="-306.15" transform="scale(1, -1)"
	style="font-family:Times;font-weight:normal;font-style:normal;font-size:10px">0.25</text>
<text x="18.746" y="-419.86" transform="scale(1, -1)"
	style="font-family:Times;font-weight:normal;font-style:normal;font-size:10px">0.50</text>
<path d="M38.746,83.447L46.746,83.447" style="fill:none;stroke:#000000;stroke-width:0.5" />
<path d="M38.746,197.16L46.746,197.16" style="fill:none;stroke:#000000;stroke-width:0.5" />
<path d="M38.746,310.87L46.746,310.87" style="fill:none;stroke:#000000;stroke-width:0.5" />
<path d="M38.746,424.58L46.746,424.58" style="fill:none;stroke:#000000;stroke-width:0.5" />
<path d="M42.746,37.963L46.746,37.963" style="fill:none;stroke:#000000;stroke-width:0.5" />
<path d="M42.746,60.705L46.746,60.705" style="fill:none;stroke:#000000;stroke-width:0.5" />
<path d="M42.746,106.19L46.746,106.19" style="fill:none;stroke:#000000;stroke-width:0.5" />
<path d="M42.746,128.93L46.746,128.93" style="fill:none;stroke:#000000;stroke-width:0.5" />
<path d="M42.746,151.67L46.746,151.67" style="fill:none;stroke:#000000;stroke-width:0.5" />
<path d="M42.746,174.42L46.746,174.42" style="fill:none;stroke:#000000;stroke-width:0.5" />
<path d="M42.746,219.9L46.746,219.9" style="fill:none;stroke:#000000;stroke-width:0.5" />
<path d="M42.746,242.64L46.746,242.64" style="fill:none;stroke:#000000;stroke-width:0.5" />
<path d="M42.746,265.39L46.746,265.39" style="fill:none;stroke:#000000;stroke-width:0.5" />
<path d="M42.746,288.13L46.746,288.13" style="fill:none;stroke:#000000;stroke-width:0.5" />
<path d="M42.746,333.61L46.746,333.61" style="fill:none;stroke:#000000;stroke-width:0.5" />
<path d="M42.746,356.35L46.746,356.35" style="fill:none;stroke:#000000;stroke-width:0.5" />
<path d="M42.746,379.1L46.746,379.1" style="fill:none;stroke:#000000;stroke-width:0.5" />
<path d="M42.746,401.84L46.746,401.84" style="fill:none;stroke:#000000;stroke-width:0.5" />
<path d="M46.746,30.23L46.746,429.58" style="fill:none;stroke:#000000;stroke-width:0.5" />
<path d="M55.824,197.16L55.824,197.2L85.824,197.2L85.824,197.16Z" style="fill:#F15A60" />
<path d="M283.88,197.16L283.88,244.92L313.88,244.92L313.88,197.16Z" style="fill:#F15A60" />
<path d="M511.94,197.16L511.94,197.29L541.94,197.29L541.94,197.16Z" style="fill:#F15A60" />
<path d="M740,197.16L740,324.51L770,324.51L770,197.16Z" style="fill:#F15A60" />
<path d="M85.824,197.16L85.824,197.83L115.82,197.83L115.82,197.16Z" style="fill:#7AC36A" />
<path d="M313.88,197.16L313.88,178.1L343.88,178.1L343.88,197.16Z" style="fill:#7AC36A" />
<path d="M541.94,197.16L541.94,197.84L571.94,197.84L571.94,197.16Z" style="fill:#7AC36A" />
<path d="M770,197.16L770,116.65L800,116.65L800,197.16Z" style="fill:#7AC36A" />
<path d="M115.82,197.16L115.82,197.31L145.82,197.31L145.82,197.16Z" style="fill:#5A9BD4" />
<path d="M343.88,197.16L343.88,429.58L373.88,429.58L373.88,197.16Z" style="fill:#5A9BD4" />
<path d="M571.94,197.16L571.94,198.08L601.94,198.08L601.94,197.16Z" style="fill:#5A9BD4" />
<path d="M800,197.16L800,30.23L830,30.23L830,197.16Z" style="fill:#5A9BD4" />
<path d="M145.82,197.16L145.82,197.15L175.82,197.15L175.82,197.16Z" style="fill:#FAA75B" />
<path d="M373.88,197.16L373.88,183.51L403.88,183.51L403.88,197.16Z" style="fill:#FAA75B" />
<path d="M601.94,197.16L601.94,196.67L631.94,196.67L631.94,197.16Z" style="fill:#FAA75B" />
<path d="M830,197.16L830,145.76L860,145.76L860,197.16Z" style="fill:#FAA75B" />
<path d="M175.82,197.16L175.82,197.21L205.82,197.21L205.82,197.16Z" style="fill:#9E67AB" />
<path d="M403.88,197.16L403.88,192.85L433.88,192.85L433.88,197.16Z" style="fill:#9E67AB" />
<path d="M631.94,197.16L631.94,197.77L661.94,197.77L661.94,197.16Z" style="fill:#9E67AB" />
<path d="M860,197.16L860,197.58L890,197.58L890,197.16Z" style="fill:#9E67AB" />
<path d="M870,417.81L870,429.58L890,429.58L890,417.81Z" style="fill:#F15A60" />
<text x="822" y="-418.03" transform="scale(1, -1)"
	style="font-family:Times;font-weight:normal;font-style:normal;font-size:12px">0.100000</text>
<path d="M870,406.03L870,417.81L890,417.81L890,406.03Z" style="fill:#7AC36A" />
<text x="822" y="-406.25" transform="scale(1, -1)"
	style="font-family:Times;font-weight:normal;font-style:normal;font-size:12px">0.500000</text>
<path d="M870,394.25L870,406.03L890,406.03L890,394.25Z" style="fill:#5A9BD4" />
<text x="822" y="-394.47" transform="scale(1, -1)"
	style="font-family:Times;font-weight:normal;font-style:normal;font-size:12px">0.900000</text>
<path d="M870,382.47L870,394.25L890,394.25L890,382.47Z" style="fill:#FAA75B" />
<text x="822" y="-382.7" transform="scale(1, -1)"
	style="font-family:Times;font-weight:normal;font-style:normal;font-size:12px">0.990000</text>
<path d="M870,370.7L870,382.47L890,382.47L890,370.7Z" style="fill:#9E67AB" />
<text x="822" y="-370.92" transform="scale(1, -1)"
	style="font-family:Times;font-weight:normal;font-style:normal;font-size:12px">0.999000</text>
</g>
</svg>
