<?xml version="1.0"?>
<!-- Generated by SVGo and Plotinum VG -->
<svg width="890pt" height="445pt" viewBox="0 0 890 445"
	xmlns="http://www.w3.org/2000/svg"
	xmlns:xlink="http://www.w3.org/1999/xlink">
<g transform="scale(1, -1) translate(0, -445)">
<path d="M0,0L890,0L890,445L0,445Z" style="fill:#FFFFFF" />
<text x="304.94" y="-433.45" transform="scale(1, -1)"
	style="font-family:Times;font-weight:normal;font-style:normal;font-size:12px">BenchmarkCorrectness/size=1000000/source=exponential</text>
<text x="454.41" y="-3.8613" transform="scale(1, -1)"
	style="font-family:Times;font-weight:normal;font-style:normal;font-size:12px">digest</text>
<text x="114.17" y="-15.602" transform="scale(1, -1)"
	style="font-family:Times;font-weight:normal;font-style:normal;font-size:10px">caio</text>
<text x="332.78" y="-15.602" transform="scale(1, -1)"
	style="font-family:Times;font-weight:normal;font-style:normal;font-size:10px">segmentio</text>
<text x="563.89" y="-15.602" transform="scale(1, -1)"
	style="font-family:Times;font-weight:normal;font-style:normal;font-size:10px">influxdata</text>
<text x="797.78" y="-15.602" transform="scale(1, -1)"
	style="font-family:Times;font-weight:normal;font-style:normal;font-size:10px">lightstep</text>
<g transform="rotate(90)">
<text x="200.7" y="11.555" transform="scale(1, -1)"
	style="font-family:Times;font-weight:normal;font-style:normal;font-size:12px">%difference</text>
</g>
<text x="15.416" y="-25.509" transform="scale(1, -1)"
	style="font-family:Times;font-weight:normal;font-style:normal;font-size:10px">0.0</text>
<text x="15.416" y="-189.18" transform="scale(1, -1)"
	style="font-family:Times;font-weight:normal;font-style:normal;font-size:10px">0.1</text>
<text x="15.416" y="-352.85" transform="scale(1, -1)"
	style="font-family:Times;font-weight:normal;font-style:normal;font-size:10px">0.2</text>
<path d="M30.416,30.23L38.416,30.23" style="fill:none;stroke:#000000;stroke-width:0.5" />
<path d="M30.416,193.9L38.416,193.9" style="fill:none;stroke:#000000;stroke-width:0.5" />
<path d="M30.416,357.57L38.416,357.57" style="fill:none;stroke:#000000;stroke-width:0.5" />
<path d="M34.416,62.964L38.416,62.964" style="fill:none;stroke:#000000;stroke-width:0.5" />
<path d="M34.416,95.698L38.416,95.698" style="fill:none;stroke:#000000;stroke-width:0.5" />
<path d="M34.416,128.43L38.416,128.43" style="fill:none;stroke:#000000;stroke-width:0.5" />
<path d="M34.416,161.17L38.416,161.17" style="fill:none;stroke:#000000;stroke-width:0.5" />
<path d="M34.416,226.63L38.416,226.63" style="fill:none;stroke:#000000;stroke-width:0.5" />
<path d="M34.416,259.37L38.416,259.37" style="fill:none;stroke:#000000;stroke-width:0.5" />
<path d="M34.416,292.1L38.416,292.1" style="fill:none;stroke:#000000;stroke-width:0.5" />
<path d="M34.416,324.84L38.416,324.84" style="fill:none;stroke:#000000;stroke-width:0.5" />
<path d="M34.416,390.3L38.416,390.3" style="fill:none;stroke:#000000;stroke-width:0.5" />
<path d="M34.416,423.04L38.416,423.04" style="fill:none;stroke:#000000;stroke-width:0.5" />
<path d="M38.416,30.23L38.416,429.58" style="fill:none;stroke:#000000;stroke-width:0.5" />
<path d="M47.494,30.23L47.494,30.23L77.494,30.23L77.494,30.23Z" style="fill:#F15A60" />
<path d="M278.33,30.23L278.33,32.145L308.33,32.145L308.33,30.23Z" style="fill:#F15A60" />
<path d="M509.16,30.23L509.16,30.232L539.16,30.232L539.16,30.23Z" style="fill:#F15A60" />
<path d="M740,30.23L740,369.03L770,369.03L770,30.23Z" style="fill:#F15A60" />
<path d="M77.494,30.23L77.494,30.25L107.49,30.25L107.49,30.23Z" style="fill:#7AC36A" />
<path d="M308.33,30.23L308.33,31.576L338.33,31.576L338.33,30.23Z" style="fill:#7AC36A" />
<path d="M539.16,30.23L539.16,30.255L569.16,30.255L569.16,30.23Z" style="fill:#7AC36A" />
<path d="M770,30.23L770,119.1L800,119.1L800,30.23Z" style="fill:#7AC36A" />
<path d="M107.49,30.23L107.49,30.26L137.49,30.26L137.49,30.23Z" style="fill:#5A9BD4" />
<path d="M338.33,30.23L338.33,115.01L368.33,115.01L368.33,30.23Z" style="fill:#5A9BD4" />
<path d="M569.16,30.23L569.16,30.591L599.16,30.591L599.16,30.23Z" style="fill:#5A9BD4" />
<path d="M800,30.23L800,398.49L830,398.49L830,30.23Z" style="fill:#5A9BD4" />
<path d="M137.49,30.23L137.49,30.471L167.49,30.471L167.49,30.23Z" style="fill:#FAA75B" />
<path d="M368.33,30.23L368.33,85.387L398.33,85.387L398.33,30.23Z" style="fill:#FAA75B" />
<path d="M599.16,30.23L599.16,32.342L629.16,32.342L629.16,30.23Z" style="fill:#FAA75B" />
<path d="M830,30.23L830,429.58L860,429.58L860,30.23Z" style="fill:#FAA75B" />
<path d="M167.49,30.23L167.49,30.738L197.49,30.738L197.49,30.23Z" style="fill:#9E67AB" />
<path d="M398.33,30.23L398.33,141.2L428.33,141.2L428.33,30.23Z" style="fill:#9E67AB" />
<path d="M629.16,30.23L629.16,43.455L659.16,43.455L659.16,30.23Z" style="fill:#9E67AB" />
<path d="M860,30.23L860,241.36L890,241.36L890,30.23Z" style="fill:#9E67AB" />
<path d="M870,417.81L870,429.58L890,429.58L890,417.81Z" style="fill:#F15A60" />
<text x="822" y="-418.03" transform="scale(1, -1)"
	style="font-family:Times;font-weight:normal;font-style:normal;font-size:12px">0.100000</text>
<path d="M870,406.03L870,417.81L890,417.81L890,406.03Z" style="fill:#7AC36A" />
<text x="822" y="-406.25" transform="scale(1, -1)"
	style="font-family:Times;font-weight:normal;font-style:normal;font-size:12px">0.500000</text>
<path d="M870,394.25L870,406.03L890,406.03L890,394.25Z" style="fill:#5A9BD4" />
<text x="822" y="-394.47" transform="scale(1, -1)"
	style="font-family:Times;font-weight:normal;font-style:normal;font-size:12px">0.900000</text>
<path d="M870,382.47L870,394.25L890,394.25L890,382.47Z" style="fill:#FAA75B" />
<text x="822" y="-382.7" transform="scale(1, -1)"
	style="font-family:Times;font-weight:normal;font-style:normal;font-size:12px">0.990000</text>
<path d="M870,370.7L870,382.47L890,382.47L890,370.7Z" style="fill:#9E67AB" />
<text x="822" y="-370.92" transform="scale(1, -1)"
	style="font-family:Times;font-weight:normal;font-style:normal;font-size:12px">0.999000</text>
</g>
</svg>
