<?xml version="1.0"?>
<!-- Generated by SVGo and Plotinum VG -->
<svg width="890pt" height="445pt" viewBox="0 0 890 445"
	xmlns="http://www.w3.org/2000/svg"
	xmlns:xlink="http://www.w3.org/1999/xlink">
<g transform="scale(1, -1) translate(0, -445)">
<path d="M0,0L890,0L890,445L0,445Z" style="fill:#FFFFFF" />
<text x="313.59" y="-433.45" transform="scale(1, -1)"
	style="font-family:Times;font-weight:normal;font-style:normal;font-size:12px">BenchmarkCorrectness/size=1000000/digest=lightstep</text>
<text x="457.53" y="-3.8613" transform="scale(1, -1)"
	style="font-family:Times;font-weight:normal;font-style:normal;font-size:12px">source</text>
<text x="122.5" y="-15.602" transform="scale(1, -1)"
	style="font-family:Times;font-weight:normal;font-style:normal;font-size:10px">rand</text>
<text x="335.93" y="-15.602" transform="scale(1, -1)"
	style="font-family:Times;font-weight:normal;font-style:normal;font-size:10px">exponential</text>
<text x="572.96" y="-15.602" transform="scale(1, -1)"
	style="font-family:Times;font-weight:normal;font-style:normal;font-size:10px">normal</text>
<text x="798.06" y="-15.602" transform="scale(1, -1)"
	style="font-family:Times;font-weight:normal;font-style:normal;font-size:10px">tailspike</text>
<g transform="rotate(90)">
<text x="200.7" y="11.555" transform="scale(1, -1)"
	style="font-family:Times;font-weight:normal;font-style:normal;font-size:12px">%difference</text>
</g>
<text x="15.416" y="-26.511" transform="scale(1, -1)"
	style="font-family:Times;font-weight:normal;font-style:normal;font-size:10px">-0.50</text>
<text x="15.416" y="-151.78" transform="scale(1, -1)"
	style="font-family:Times;font-weight:normal;font-style:normal;font-size:10px">-0.25</text>
<text x="18.746" y="-277.05" transform="scale(1, -1)"
	style="font-family:Times;font-weight:normal;font-style:normal;font-size:10px">0.00</text>
<text x="18.746" y="-402.31" transform="scale(1, -1)"
	style="font-family:Times;font-weight:normal;font-style:normal;font-size:10px">0.25</text>
<path d="M38.746,31.233L46.746,31.233" style="fill:none;stroke:#000000;stroke-width:0.5" />
<path d="M38.746,156.5L46.746,156.5" style="fill:none;stroke:#000000;stroke-width:0.5" />
<path d="M38.746,281.77L46.746,281.77" style="fill:none;stroke:#000000;stroke-width:0.5" />
<path d="M38.746,407.04L46.746,407.04" style="fill:none;stroke:#000000;stroke-width:0.5" />
<path d="M42.746,56.286L46.746,56.286" style="fill:none;stroke:#000000;stroke-width:0.5" />
<path d="M42.746,81.34L46.746,81.34" style="fill:none;stroke:#000000;stroke-width:0.5" />
<path d="M42.746,106.39L46.746,106.39" style="fill:none;stroke:#000000;stroke-width:0.5" />
<path d="M42.746,131.45L46.746,131.45" style="fill:none;stroke:#000000;stroke-width:0.5" />
<path d="M42.746,181.55L46.746,181.55" style="fill:none;stroke:#000000;stroke-width:0.5" />
<path d="M42.746,206.61L46.746,206.61" style="fill:none;stroke:#000000;stroke-width:0.5" />
<path d="M42.746,231.66L46.746,231.66" style="fill:none;stroke:#000000;stroke-width:0.5" />
<path d="M42.746,256.71L46.746,256.71" style="fill:none;stroke:#000000;stroke-width:0.5" />
<path d="M42.746,306.82L46.746,306.82" style="fill:none;stroke:#000000;stroke-width:0.5" />
<path d="M42.746,331.88L46.746,331.88" style="fill:none;stroke:#000000;stroke-width:0.5" />
<path d="M42.746,356.93L46.746,356.93" style="fill:none;stroke:#000000;stroke-width:0.5" />
<path d="M42.746,381.98L46.746,381.98" style="fill:none;stroke:#000000;stroke-width:0.5" />
<path d="M46.746,30.23L46.746,429.58" style="fill:none;stroke:#000000;stroke-width:0.5" />
<path d="M56.38,281.77L56.38,278.44L86.38,278.44L86.38,281.77Z" style="fill:#F15A60" />
<path d="M284.25,281.77L284.25,422.07L314.25,422.07L314.25,281.77Z" style="fill:#F15A60" />
<path d="M512.13,281.77L512.13,272.95L542.13,272.95L542.13,281.77Z" style="fill:#F15A60" />
<path d="M740,281.77L740,415.05L770,415.05L770,281.77Z" style="fill:#F15A60" />
<path d="M86.38,281.77L86.38,429.58L116.38,429.58L116.38,281.77Z" style="fill:#7AC36A" />
<path d="M314.25,281.77L314.25,193.08L344.25,193.08L344.25,281.77Z" style="fill:#7AC36A" />
<path d="M542.13,281.77L542.13,30.23L572.13,30.23L572.13,281.77Z" style="fill:#7AC36A" />
<path d="M770,281.77L770,374.97L800,374.97L800,281.77Z" style="fill:#7AC36A" />
<path d="M116.38,281.77L116.38,102.89L146.38,102.89L146.38,281.77Z" style="fill:#5A9BD4" />
<path d="M344.25,281.77L344.25,97.875L374.25,97.875L374.25,281.77Z" style="fill:#5A9BD4" />
<path d="M572.13,281.77L572.13,348.41L602.13,348.41L602.13,281.77Z" style="fill:#5A9BD4" />
<path d="M800,281.77L800,270.94L830,270.94L830,281.77Z" style="fill:#5A9BD4" />
<path d="M146.38,281.77L146.38,254.86L176.38,254.86L176.38,281.77Z" style="fill:#FAA75B" />
<path d="M374.25,281.77L374.25,225.15L404.25,225.15L404.25,281.77Z" style="fill:#FAA75B" />
<path d="M602.13,281.77L602.13,300.36L632.13,300.36L632.13,281.77Z" style="fill:#FAA75B" />
<path d="M830,281.77L830,353.92L860,353.92L860,281.77Z" style="fill:#FAA75B" />
<path d="M176.38,281.77L176.38,293.24L206.38,293.24L206.38,281.77Z" style="fill:#9E67AB" />
<path d="M404.25,281.77L404.25,282.23L434.25,282.23L434.25,281.77Z" style="fill:#9E67AB" />
<path d="M632.13,281.77L632.13,302.91L662.13,302.91L662.13,281.77Z" style="fill:#9E67AB" />
<path d="M860,281.77L860,277.41L890,277.41L890,281.77Z" style="fill:#9E67AB" />
<path d="M870,417.81L870,429.58L890,429.58L890,417.81Z" style="fill:#F15A60" />
<text x="822" y="-418.03" transform="scale(1, -1)"
	style="font-family:Times;font-weight:normal;font-style:normal;font-size:12px">0.100000</text>
<path d="M870,406.03L870,417.81L890,417.81L890,406.03Z" style="fill:#7AC36A" />
<text x="822" y="-406.25" transform="scale(1, -1)"
	style="font-family:Times;font-weight:normal;font-style:normal;font-size:12px">0.500000</text>
<path d="M870,394.25L870,406.03L890,406.03L890,394.25Z" style="fill:#5A9BD4" />
<text x="822" y="-394.47" transform="scale(1, -1)"
	style="font-family:Times;font-weight:normal;font-style:normal;font-size:12px">0.900000</text>
<path d="M870,382.47L870,394.25L890,394.25L890,382.47Z" style="fill:#FAA75B" />
<text x="822" y="-382.7" transform="scale(1, -1)"
	style="font-family:Times;font-weight:normal;font-style:normal;font-size:12px">0.990000</text>
<path d="M870,370.7L870,382.47L890,382.47L890,370.7Z" style="fill:#9E67AB" />
<text x="822" y="-370.92" transform="scale(1, -1)"
	style="font-family:Times;font-weight:normal;font-style:normal;font-size:12px">0.999000</text>
</g>
</svg>
