<?xml version="1.0"?>
<!-- Generated by SVGo and Plotinum VG -->
<svg width="890pt" height="445pt" viewBox="0 0 890 445"
	xmlns="http://www.w3.org/2000/svg"
	xmlns:xlink="http://www.w3.org/1999/xlink">
<g transform="scale(1, -1) translate(0, -445)">
<path d="M0,0L890,0L890,445L0,445Z" style="fill:#FFFFFF" />
<text x="324.26" y="-433.45" transform="scale(1, -1)"
	style="font-family:Times;font-weight:normal;font-style:normal;font-size:12px">BenchmarkCorrectness/size=1000000/digest=caio</text>
<text x="460.03" y="-3.8613" transform="scale(1, -1)"
	style="font-family:Times;font-weight:normal;font-style:normal;font-size:12px">source</text>
<text x="127.5" y="-15.602" transform="scale(1, -1)"
	style="font-family:Times;font-weight:normal;font-style:normal;font-size:10px">rand</text>
<text x="339.26" y="-15.602" transform="scale(1, -1)"
	style="font-family:Times;font-weight:normal;font-style:normal;font-size:10px">exponential</text>
<text x="574.63" y="-15.602" transform="scale(1, -1)"
	style="font-family:Times;font-weight:normal;font-style:normal;font-size:10px">normal</text>
<text x="798.06" y="-15.602" transform="scale(1, -1)"
	style="font-family:Times;font-weight:normal;font-style:normal;font-size:10px">tailspike</text>
<g transform="rotate(90)">
<text x="200.7" y="11.555" transform="scale(1, -1)"
	style="font-family:Times;font-weight:normal;font-style:normal;font-size:12px">%difference</text>
</g>
<text x="15.416" y="-83.546" transform="scale(1, -1)"
	style="font-family:Times;font-weight:normal;font-style:normal;font-size:10px">-0.001</text>
<text x="36.246" y="-221.73" transform="scale(1, -1)"
	style="font-family:Times;font-weight:normal;font-style:normal;font-size:10px">0</text>
<text x="18.746" y="-359.92" transform="scale(1, -1)"
	style="font-family:Times;font-weight:normal;font-style:normal;font-size:10px">0.001</text>
<path d="M43.746,88.268L51.746,88.268" style="fill:none;stroke:#000000;stroke-width:0.5" />
<path d="M43.746,226.45L51.746,226.45" style="fill:none;stroke:#000000;stroke-width:0.5" />
<path d="M43.746,364.64L51.746,364.64" style="fill:none;stroke:#000000;stroke-width:0.5" />
<path d="M47.746,32.994L51.746,32.994" style="fill:none;stroke:#000000;stroke-width:0.5" />
<path d="M47.746,60.631L51.746,60.631" style="fill:none;stroke:#000000;stroke-width:0.5" />
<path d="M47.746,115.9L51.746,115.9" style="fill:none;stroke:#000000;stroke-width:0.5" />
<path d="M47.746,143.54L51.746,143.54" style="fill:none;stroke:#000000;stroke-width:0.5" />
<path d="M47.746,171.18L51.746,171.18" style="fill:none;stroke:#000000;stroke-width:0.5" />
<path d="M47.746,198.82L51.746,198.82" style="fill:none;stroke:#000000;stroke-width:0.5" />
<path d="M47.746,254.09L51.746,254.09" style="fill:none;stroke:#000000;stroke-width:0.5" />
<path d="M47.746,281.73L51.746,281.73" style="fill:none;stroke:#000000;stroke-width:0.5" />
<path d="M47.746,309.36L51.746,309.36" style="fill:none;stroke:#000000;stroke-width:0.5" />
<path d="M47.746,337L51.746,337" style="fill:none;stroke:#000000;stroke-width:0.5" />
<path d="M47.746,392.27L51.746,392.27" style="fill:none;stroke:#000000;stroke-width:0.5" />
<path d="M47.746,419.91L51.746,419.91" style="fill:none;stroke:#000000;stroke-width:0.5" />
<path d="M51.746,30.23L51.746,429.58" style="fill:none;stroke:#000000;stroke-width:0.5" />
<path d="M61.38,226.45L61.38,172.15L91.38,172.15L91.38,226.45Z" style="fill:#F15A60" />
<path d="M287.59,226.45L287.59,238.75L317.59,238.75L317.59,226.45Z" style="fill:#F15A60" />
<path d="M513.79,226.45L513.79,237.92L543.79,237.92L543.79,226.45Z" style="fill:#F15A60" />
<path d="M740,226.45L740,286.56L770,286.56L770,226.45Z" style="fill:#F15A60" />
<path d="M91.38,226.45L91.38,154.18L121.38,154.18L121.38,226.45Z" style="fill:#7AC36A" />
<path d="M317.59,226.45L317.59,429.58L347.59,429.58L347.59,226.45Z" style="fill:#7AC36A" />
<path d="M543.79,226.45L543.79,213.05L573.79,213.05L573.79,226.45Z" style="fill:#7AC36A" />
<path d="M770,226.45L770,30.23L800,30.23L800,226.45Z" style="fill:#7AC36A" />
<path d="M121.38,226.45L121.38,281.31L151.38,281.31L151.38,226.45Z" style="fill:#5A9BD4" />
<path d="M347.59,226.45L347.59,272.05L377.59,272.05L377.59,226.45Z" style="fill:#5A9BD4" />
<path d="M573.79,226.45L573.79,204.34L603.79,204.34L603.79,226.45Z" style="fill:#5A9BD4" />
<path d="M800,226.45L800,220.23L830,220.23L830,226.45Z" style="fill:#5A9BD4" />
<path d="M151.38,226.45L151.38,241.1L181.38,241.1L181.38,226.45Z" style="fill:#FAA75B" />
<path d="M377.59,226.45L377.59,224.24L407.59,224.24L407.59,226.45Z" style="fill:#FAA75B" />
<path d="M603.79,226.45L603.79,236.68L633.79,236.68L633.79,226.45Z" style="fill:#FAA75B" />
<path d="M830,226.45L830,159.43L860,159.43L860,226.45Z" style="fill:#FAA75B" />
<path d="M181.38,226.45L181.38,234.19L211.38,234.19L211.38,226.45Z" style="fill:#9E67AB" />
<path d="M407.59,226.45L407.59,243.17L437.59,243.17L437.59,226.45Z" style="fill:#9E67AB" />
<path d="M633.79,226.45L633.79,242.62L663.79,242.62L663.79,226.45Z" style="fill:#9E67AB" />
<path d="M860,226.45L860,240.27L890,240.27L890,226.45Z" style="fill:#9E67AB" />
<path d="M870,417.81L870,429.58L890,429.58L890,417.81Z" style="fill:#F15A60" />
<text x="822" y="-418.03" transform="scale(1, -1)"
	style="font-family:Times;font-weight:normal;font-style:normal;font-size:12px">0.100000</text>
<path d="M870,406.03L870,417.81L890,417.81L890,406.03Z" style="fill:#7AC36A" />
<text x="822" y="-406.25" transform="scale(1, -1)"
	style="font-family:Times;font-weight:normal;font-style:normal;font-size:12px">0.500000</text>
<path d="M870,394.25L870,406.03L890,406.03L890,394.25Z" style="fill:#5A9BD4" />
<text x="822" y="-394.47" transform="scale(1, -1)"
	style="font-family:Times;font-weight:normal;font-style:normal;font-size:12px">0.900000</text>
<path d="M870,382.47L870,394.25L890,394.25L890,382.47Z" style="fill:#FAA75B" />
<text x="822" y="-382.7" transform="scale(1, -1)"
	style="font-family:Times;font-weight:normal;font-style:normal;font-size:12px">0.990000</text>
<path d="M870,370.7L870,382.47L890,382.47L890,370.7Z" style="fill:#9E67AB" />
<text x="822" y="-370.92" transform="scale(1, -1)"
	style="font-family:Times;font-weight:normal;font-style:normal;font-size:12px">0.999000</text>
</g>
</svg>
