<?xml version="1.0"?>
<!-- Generated by SVGo and Plotinum VG -->
<svg width="3290pt" height="1645pt" viewBox="0 0 3290 1645"
	xmlns="http://www.w3.org/2000/svg"
	xmlns:xlink="http://www.w3.org/1999/xlink">
<g transform="scale(1, -1) translate(0, -1645)">
<path d="M0,0L3290,0L3290,1645L0,1645Z" style="fill:#FFFFFF" />
<text x="1553.6" y="-1633.4" transform="scale(1, -1)"
	style="font-family:Times;font-weight:normal;font-style:normal;font-size:12px">BenchmarkCorrectness/size=1000000</text>
<text x="1663.2" y="-3.8613" transform="scale(1, -1)"
	style="font-family:Times;font-weight:normal;font-style:normal;font-size:12px">digest</text>
<text x="431.67" y="-15.602" transform="scale(1, -1)"
	style="font-family:Times;font-weight:normal;font-style:normal;font-size:10px">caio</text>
<text x="1244.4" y="-15.602" transform="scale(1, -1)"
	style="font-family:Times;font-weight:normal;font-style:normal;font-size:10px">segmentio</text>
<text x="2069.7" y="-15.602" transform="scale(1, -1)"
	style="font-family:Times;font-weight:normal;font-style:normal;font-size:10px">influxdata</text>
<text x="2897.8" y="-15.602" transform="scale(1, -1)"
	style="font-family:Times;font-weight:normal;font-style:normal;font-size:10px">lightstep</text>
<g transform="rotate(90)">
<text x="800.7" y="11.555" transform="scale(1, -1)"
	style="font-family:Times;font-weight:normal;font-style:normal;font-size:12px">%difference</text>
</g>
<text x="40.416" y="-25.509" transform="scale(1, -1)"
	style="font-family:Times;font-weight:normal;font-style:normal;font-size:10px">0</text>
<text x="15.416" y="-806.66" transform="scale(1, -1)"
	style="font-family:Times;font-weight:normal;font-style:normal;font-size:10px">400000</text>
<text x="15.416" y="-1587.8" transform="scale(1, -1)"
	style="font-family:Times;font-weight:normal;font-style:normal;font-size:10px">800000</text>
<path d="M47.916,30.23L55.916,30.23" style="fill:none;stroke:#000000;stroke-width:0.5" />
<path d="M47.916,811.38L55.916,811.38" style="fill:none;stroke:#000000;stroke-width:0.5" />
<path d="M47.916,1592.5L55.916,1592.5" style="fill:none;stroke:#000000;stroke-width:0.5" />
<path d="M51.916,225.52L55.916,225.52" style="fill:none;stroke:#000000;stroke-width:0.5" />
<path d="M51.916,420.81L55.916,420.81" style="fill:none;stroke:#000000;stroke-width:0.5" />
<path d="M51.916,616.1L55.916,616.1" style="fill:none;stroke:#000000;stroke-width:0.5" />
<path d="M51.916,1006.7L55.916,1006.7" style="fill:none;stroke:#000000;stroke-width:0.5" />
<path d="M51.916,1202L55.916,1202" style="fill:none;stroke:#000000;stroke-width:0.5" />
<path d="M51.916,1397.2L55.916,1397.2" style="fill:none;stroke:#000000;stroke-width:0.5" />
<path d="M55.916,30.23L55.916,1629.6" style="fill:none;stroke:#000000;stroke-width:0.5" />
<path d="M64.994,30.23L64.994,30.28L94.994,30.28L94.994,30.23Z" style="fill:#F15A60" />
<path d="M890,30.23L890,30.231L920,30.231L920,30.23Z" style="fill:#F15A60" />
<path d="M1715,30.23L1715,30.231L1745,30.231L1745,30.23Z" style="fill:#F15A60" />
<path d="M2540,30.23L2540,1629.6L2570,1629.6L2570,30.23Z" style="fill:#F15A60" />
<path d="M94.994,30.23L94.994,30.231L124.99,30.231L124.99,30.23Z" style="fill:#7AC36A" />
<path d="M920,30.23L920,30.231L950,30.231L950,30.23Z" style="fill:#7AC36A" />
<path d="M1745,30.23L1745,30.231L1775,30.231L1775,30.23Z" style="fill:#7AC36A" />
<path d="M2570,30.23L2570,919.1L2600,919.1L2600,30.23Z" style="fill:#7AC36A" />
<path d="M124.99,30.23L124.99,30.232L154.99,30.232L154.99,30.23Z" style="fill:#5A9BD4" />
<path d="M950,30.23L950,30.231L980,30.231L980,30.23Z" style="fill:#5A9BD4" />
<path d="M1775,30.23L1775,30.231L1805,30.231L1805,30.23Z" style="fill:#5A9BD4" />
<path d="M2600,30.23L2600,207.69L2630,207.69L2630,30.23Z" style="fill:#5A9BD4" />
<path d="M154.99,30.23L154.99,30.232L184.99,30.232L184.99,30.23Z" style="fill:#FAA75B" />
<path d="M980,30.23L980,30.231L1010,30.231L1010,30.23Z" style="fill:#FAA75B" />
<path d="M1805,30.23L1805,30.231L1835,30.231L1835,30.23Z" style="fill:#FAA75B" />
<path d="M2630,30.23L2630,48.004L2660,48.004L2660,30.23Z" style="fill:#FAA75B" />
<path d="M184.99,30.23L184.99,30.232L214.99,30.232L214.99,30.23Z" style="fill:#9E67AB" />
<path d="M1010,30.23L1010,30.231L1040,30.231L1040,30.23Z" style="fill:#9E67AB" />
<path d="M1835,30.23L1835,30.231L1865,30.231L1865,30.23Z" style="fill:#9E67AB" />
<path d="M2660,30.23L2660,31.98L2690,31.98L2690,30.23Z" style="fill:#9E67AB" />
<path d="M214.99,30.23L214.99,30.23L244.99,30.23L244.99,30.23Z" style="fill:#CE7058" />
<path d="M1040,30.23L1040,30.23L1070,30.23L1070,30.23Z" style="fill:#CE7058" />
<path d="M1865,30.23L1865,30.23L1895,30.23L1895,30.23Z" style="fill:#CE7058" />
<path d="M2690,30.23L2690,30.231L2720,30.231L2720,30.23Z" style="fill:#CE7058" />
<path d="M244.99,30.23L244.99,30.23L274.99,30.23L274.99,30.23Z" style="fill:#D77FB4" />
<path d="M1070,30.23L1070,30.23L1100,30.23L1100,30.23Z" style="fill:#D77FB4" />
<path d="M1895,30.23L1895,30.23L1925,30.23L1925,30.23Z" style="fill:#D77FB4" />
<path d="M2720,30.23L2720,30.231L2750,30.231L2750,30.23Z" style="fill:#D77FB4" />
<path d="M274.99,30.23L274.99,30.23L304.99,30.23L304.99,30.23Z" style="fill:#F15A60" />
<path d="M1100,30.23L1100,30.23L1130,30.23L1130,30.23Z" style="fill:#F15A60" />
<path d="M1925,30.23L1925,30.23L1955,30.23L1955,30.23Z" style="fill:#F15A60" />
<path d="M2750,30.23L2750,30.231L2780,30.231L2780,30.23Z" style="fill:#F15A60" />
<path d="M304.99,30.23L304.99,30.23L334.99,30.23L334.99,30.23Z" style="fill:#7AC36A" />
<path d="M1130,30.23L1130,30.23L1160,30.23L1160,30.23Z" style="fill:#7AC36A" />
<path d="M1955,30.23L1955,30.23L1985,30.23L1985,30.23Z" style="fill:#7AC36A" />
<path d="M2780,30.23L2780,30.23L2810,30.23L2810,30.23Z" style="fill:#7AC36A" />
<path d="M334.99,30.23L334.99,30.23L364.99,30.23L364.99,30.23Z" style="fill:#5A9BD4" />
<path d="M1160,30.23L1160,30.23L1190,30.23L1190,30.23Z" style="fill:#5A9BD4" />
<path d="M1985,30.23L1985,30.23L2015,30.23L2015,30.23Z" style="fill:#5A9BD4" />
<path d="M2810,30.23L2810,30.23L2840,30.23L2840,30.23Z" style="fill:#5A9BD4" />
<path d="M364.99,30.23L364.99,30.23L394.99,30.23L394.99,30.23Z" style="fill:#FAA75B" />
<path d="M1190,30.23L1190,30.23L1220,30.23L1220,30.23Z" style="fill:#FAA75B" />
<path d="M2015,30.23L2015,30.23L2045,30.23L2045,30.23Z" style="fill:#FAA75B" />
<path d="M2840,30.23L2840,30.233L2870,30.233L2870,30.23Z" style="fill:#FAA75B" />
<path d="M394.99,30.23L394.99,30.23L424.99,30.23L424.99,30.23Z" style="fill:#9E67AB" />
<path d="M1220,30.23L1220,30.23L1250,30.23L1250,30.23Z" style="fill:#9E67AB" />
<path d="M2045,30.23L2045,30.23L2075,30.23L2075,30.23Z" style="fill:#9E67AB" />
<path d="M2870,30.23L2870,30.233L2900,30.233L2900,30.23Z" style="fill:#9E67AB" />
<path d="M424.99,30.23L424.99,30.23L454.99,30.23L454.99,30.23Z" style="fill:#CE7058" />
<path d="M1250,30.23L1250,30.23L1280,30.23L1280,30.23Z" style="fill:#CE7058" />
<path d="M2075,30.23L2075,30.23L2105,30.23L2105,30.23Z" style="fill:#CE7058" />
<path d="M2900,30.23L2900,30.231L2930,30.231L2930,30.23Z" style="fill:#CE7058" />
<path d="M454.99,30.23L454.99,30.23L484.99,30.23L484.99,30.23Z" style="fill:#D77FB4" />
<path d="M1280,30.23L1280,30.23L1310,30.23L1310,30.23Z" style="fill:#D77FB4" />
<path d="M2105,30.23L2105,30.23L2135,30.23L2135,30.23Z" style="fill:#D77FB4" />
<path d="M2930,30.23L2930,30.23L2960,30.23L2960,30.23Z" style="fill:#D77FB4" />
<path d="M484.99,30.23L484.99,30.23L514.99,30.23L514.99,30.23Z" style="fill:#F15A60" />
<path d="M1310,30.23L1310,30.23L1340,30.23L1340,30.23Z" style="fill:#F15A60" />
<path d="M2135,30.23L2135,30.23L2165,30.23L2165,30.23Z" style="fill:#F15A60" />
<path d="M2960,30.23L2960,30.23L2990,30.23L2990,30.23Z" style="fill:#F15A60" />
<path d="M514.99,30.23L514.99,30.23L544.99,30.23L544.99,30.23Z" style="fill:#7AC36A" />
<path d="M1340,30.23L1340,30.23L1370,30.23L1370,30.23Z" style="fill:#7AC36A" />
<path d="M2165,30.23L2165,30.23L2195,30.23L2195,30.23Z" style="fill:#7AC36A" />
<path d="M2990,30.23L2990,30.231L3020,30.231L3020,30.23Z" style="fill:#7AC36A" />
<path d="M544.99,30.23L544.99,30.23L574.99,30.23L574.99,30.23Z" style="fill:#5A9BD4" />
<path d="M1370,30.23L1370,30.23L1400,30.23L1400,30.23Z" style="fill:#5A9BD4" />
<path d="M2195,30.23L2195,30.23L2225,30.23L2225,30.23Z" style="fill:#5A9BD4" />
<path d="M3020,30.23L3020,30.231L3050,30.231L3050,30.23Z" style="fill:#5A9BD4" />
<path d="M574.99,30.23L574.99,30.23L604.99,30.23L604.99,30.23Z" style="fill:#FAA75B" />
<path d="M1400,30.23L1400,30.231L1430,30.231L1430,30.23Z" style="fill:#FAA75B" />
<path d="M2225,30.23L2225,30.23L2255,30.23L2255,30.23Z" style="fill:#FAA75B" />
<path d="M3050,30.23L3050,30.231L3080,30.231L3080,30.23Z" style="fill:#FAA75B" />
<path d="M604.99,30.23L604.99,30.23L634.99,30.23L634.99,30.23Z" style="fill:#9E67AB" />
<path d="M1430,30.23L1430,30.231L1460,30.231L1460,30.23Z" style="fill:#9E67AB" />
<path d="M2255,30.23L2255,30.23L2285,30.23L2285,30.23Z" style="fill:#9E67AB" />
<path d="M3080,30.23L3080,30.231L3110,30.231L3110,30.23Z" style="fill:#9E67AB" />
<path d="M634.99,30.23L634.99,30.23L664.99,30.23L664.99,30.23Z" style="fill:#CE7058" />
<path d="M1460,30.23L1460,30.231L1490,30.231L1490,30.23Z" style="fill:#CE7058" />
<path d="M2285,30.23L2285,30.23L2315,30.23L2315,30.23Z" style="fill:#CE7058" />
<path d="M3110,30.23L3110,30.231L3140,30.231L3140,30.23Z" style="fill:#CE7058" />
<path d="M664.99,30.23L664.99,30.23L694.99,30.23L694.99,30.23Z" style="fill:#D77FB4" />
<path d="M1490,30.23L1490,30.23L1520,30.23L1520,30.23Z" style="fill:#D77FB4" />
<path d="M2315,30.23L2315,30.23L2345,30.23L2345,30.23Z" style="fill:#D77FB4" />
<path d="M3140,30.23L3140,30.231L3170,30.231L3170,30.23Z" style="fill:#D77FB4" />
<path d="M694.99,30.23L694.99,30.23L724.99,30.23L724.99,30.23Z" style="fill:#F15A60" />
<path d="M1520,30.23L1520,30.23L1550,30.23L1550,30.23Z" style="fill:#F15A60" />
<path d="M2345,30.23L2345,30.23L2375,30.23L2375,30.23Z" style="fill:#F15A60" />
<path d="M3170,30.23L3170,30.23L3200,30.23L3200,30.23Z" style="fill:#F15A60" />
<path d="M724.99,30.23L724.99,30.23L754.99,30.23L754.99,30.23Z" style="fill:#7AC36A" />
<path d="M1550,30.23L1550,30.233L1580,30.233L1580,30.23Z" style="fill:#7AC36A" />
<path d="M2375,30.23L2375,30.231L2405,30.231L2405,30.23Z" style="fill:#7AC36A" />
<path d="M3200,30.23L3200,30.233L3230,30.233L3230,30.23Z" style="fill:#7AC36A" />
<path d="M754.99,30.23L754.99,30.23L784.99,30.23L784.99,30.23Z" style="fill:#5A9BD4" />
<path d="M1580,30.23L1580,30.23L1610,30.23L1610,30.23Z" style="fill:#5A9BD4" />
<path d="M2405,30.23L2405,30.23L2435,30.23L2435,30.23Z" style="fill:#5A9BD4" />
<path d="M3230,30.23L3230,30.23L3260,30.23L3260,30.23Z" style="fill:#5A9BD4" />
<path d="M784.99,30.23L784.99,30.23L814.99,30.23L814.99,30.23Z" style="fill:#FAA75B" />
<path d="M1610,30.23L1610,30.23L1640,30.23L1640,30.23Z" style="fill:#FAA75B" />
<path d="M2435,30.23L2435,30.23L2465,30.23L2465,30.23Z" style="fill:#FAA75B" />
<path d="M3260,30.23L3260,30.23L3290,30.23L3290,30.23Z" style="fill:#FAA75B" />
<path d="M3270,1617.8L3270,1629.6L3290,1629.6L3290,1617.8Z" style="fill:#F15A60" />
<text x="3100.7" y="-1618" transform="scale(1, -1)"
	style="font-family:Times;font-weight:normal;font-style:normal;font-size:12px">[source=linear,quantile=0.100000]</text>
<path d="M3270,1606L3270,1617.8L3290,1617.8L3290,1606Z" style="fill:#7AC36A" />
<text x="3100.7" y="-1606.3" transform="scale(1, -1)"
	style="font-family:Times;font-weight:normal;font-style:normal;font-size:12px">[source=linear,quantile=0.500000]</text>
<path d="M3270,1594.3L3270,1606L3290,1606L3290,1594.3Z" style="fill:#5A9BD4" />
<text x="3100.7" y="-1594.5" transform="scale(1, -1)"
	style="font-family:Times;font-weight:normal;font-style:normal;font-size:12px">[source=linear,quantile=0.900000]</text>
<path d="M3270,1582.5L3270,1594.3L3290,1594.3L3290,1582.5Z" style="fill:#FAA75B" />
<text x="3100.7" y="-1582.7" transform="scale(1, -1)"
	style="font-family:Times;font-weight:normal;font-style:normal;font-size:12px">[source=linear,quantile=0.990000]</text>
<path d="M3270,1570.7L3270,1582.5L3290,1582.5L3290,1570.7Z" style="fill:#9E67AB" />
<text x="3100.7" y="-1570.9" transform="scale(1, -1)"
	style="font-family:Times;font-weight:normal;font-style:normal;font-size:12px">[source=linear,quantile=0.999000]</text>
<path d="M3270,1558.9L3270,1570.7L3290,1570.7L3290,1558.9Z" style="fill:#CE7058" />
<text x="3106.2" y="-1559.1" transform="scale(1, -1)"
	style="font-family:Times;font-weight:normal;font-style:normal;font-size:12px">[source=rand,quantile=0.100000]</text>
<path d="M3270,1547.1L3270,1558.9L3290,1558.9L3290,1547.1Z" style="fill:#D77FB4" />
<text x="3106.2" y="-1547.4" transform="scale(1, -1)"
	style="font-family:Times;font-weight:normal;font-style:normal;font-size:12px">[source=rand,quantile=0.500000]</text>
<path d="M3270,1535.4L3270,1547.1L3290,1547.1L3290,1535.4Z" style="fill:#F15A60" />
<text x="3106.2" y="-1535.6" transform="scale(1, -1)"
	style="font-family:Times;font-weight:normal;font-style:normal;font-size:12px">[source=rand,quantile=0.900000]</text>
<path d="M3270,1523.6L3270,1535.4L3290,1535.4L3290,1523.6Z" style="fill:#7AC36A" />
<text x="3106.2" y="-1523.8" transform="scale(1, -1)"
	style="font-family:Times;font-weight:normal;font-style:normal;font-size:12px">[source=rand,quantile=0.990000]</text>
<path d="M3270,1511.8L3270,1523.6L3290,1523.6L3290,1511.8Z" style="fill:#5A9BD4" />
<text x="3106.2" y="-1512" transform="scale(1, -1)"
	style="font-family:Times;font-weight:normal;font-style:normal;font-size:12px">[source=rand,quantile=0.999000]</text>
<path d="M3270,1500L3270,1511.8L3290,1511.8L3290,1500Z" style="fill:#FAA75B" />
<text x="3076.2" y="-1500.3" transform="scale(1, -1)"
	style="font-family:Times;font-weight:normal;font-style:normal;font-size:12px">[source=alternating,quantile=0.100000]</text>
<path d="M3270,1488.3L3270,1500L3290,1500L3290,1488.3Z" style="fill:#9E67AB" />
<text x="3076.2" y="-1488.5" transform="scale(1, -1)"
	style="font-family:Times;font-weight:normal;font-style:normal;font-size:12px">[source=alternating,quantile=0.500000]</text>
<path d="M3270,1476.5L3270,1488.3L3290,1488.3L3290,1476.5Z" style="fill:#CE7058" />
<text x="3076.2" y="-1476.7" transform="scale(1, -1)"
	style="font-family:Times;font-weight:normal;font-style:normal;font-size:12px">[source=alternating,quantile=0.900000]</text>
<path d="M3270,1464.7L3270,1476.5L3290,1476.5L3290,1464.7Z" style="fill:#D77FB4" />
<text x="3076.2" y="-1464.9" transform="scale(1, -1)"
	style="font-family:Times;font-weight:normal;font-style:normal;font-size:12px">[source=alternating,quantile=0.990000]</text>
<path d="M3270,1452.9L3270,1464.7L3290,1464.7L3290,1452.9Z" style="fill:#F15A60" />
<text x="3076.2" y="-1453.1" transform="scale(1, -1)"
	style="font-family:Times;font-weight:normal;font-style:normal;font-size:12px">[source=alternating,quantile=0.999000]</text>
<path d="M3270,1441.1L3270,1452.9L3290,1452.9L3290,1441.1Z" style="fill:#7AC36A" />
<text x="3071.5" y="-1441.4" transform="scale(1, -1)"
	style="font-family:Times;font-weight:normal;font-style:normal;font-size:12px">[source=exponential,quantile=0.100000]</text>
<path d="M3270,1429.4L3270,1441.1L3290,1441.1L3290,1429.4Z" style="fill:#5A9BD4" />
<text x="3071.5" y="-1429.6" transform="scale(1, -1)"
	style="font-family:Times;font-weight:normal;font-style:normal;font-size:12px">[source=exponential,quantile=0.500000]</text>
<path d="M3270,1417.6L3270,1429.4L3290,1429.4L3290,1417.6Z" style="fill:#FAA75B" />
<text x="3071.5" y="-1417.8" transform="scale(1, -1)"
	style="font-family:Times;font-weight:normal;font-style:normal;font-size:12px">[source=exponential,quantile=0.900000]</text>
<path d="M3270,1405.8L3270,1417.6L3290,1417.6L3290,1405.8Z" style="fill:#9E67AB" />
<text x="3071.5" y="-1406" transform="scale(1, -1)"
	style="font-family:Times;font-weight:normal;font-style:normal;font-size:12px">[source=exponential,quantile=0.990000]</text>
<path d="M3270,1394L3270,1405.8L3290,1405.8L3290,1394Z" style="fill:#CE7058" />
<text x="3071.5" y="-1394.3" transform="scale(1, -1)"
	style="font-family:Times;font-weight:normal;font-style:normal;font-size:12px">[source=exponential,quantile=0.999000]</text>
<path d="M3270,1382.3L3270,1394L3290,1394L3290,1382.3Z" style="fill:#D77FB4" />
<text x="3086.8" y="-1382.5" transform="scale(1, -1)"
	style="font-family:Times;font-weight:normal;font-style:normal;font-size:12px">[source=tailspike,quantile=0.100000]</text>
<path d="M3270,1370.5L3270,1382.3L3290,1382.3L3290,1370.5Z" style="fill:#F15A60" />
<text x="3086.8" y="-1370.7" transform="scale(1, -1)"
	style="font-family:Times;font-weight:normal;font-style:normal;font-size:12px">[source=tailspike,quantile=0.500000]</text>
<path d="M3270,1358.7L3270,1370.5L3290,1370.5L3290,1358.7Z" style="fill:#7AC36A" />
<text x="3086.8" y="-1358.9" transform="scale(1, -1)"
	style="font-family:Times;font-weight:normal;font-style:normal;font-size:12px">[source=tailspike,quantile=0.900000]</text>
<path d="M3270,1346.9L3270,1358.7L3290,1358.7L3290,1346.9Z" style="fill:#5A9BD4" />
<text x="3086.8" y="-1347.2" transform="scale(1, -1)"
	style="font-family:Times;font-weight:normal;font-style:normal;font-size:12px">[source=tailspike,quantile=0.990000]</text>
<path d="M3270,1335.2L3270,1346.9L3290,1346.9L3290,1335.2Z" style="fill:#FAA75B" />
<text x="3086.8" y="-1335.4" transform="scale(1, -1)"
	style="font-family:Times;font-weight:normal;font-style:normal;font-size:12px">[source=tailspike,quantile=0.999000]</text>
</g>
</svg>
