<?xml version="1.0"?>
<!-- Generated by SVGo and Plotinum VG -->
<svg width="890pt" height="445pt" viewBox="0 0 890 445"
	xmlns="http://www.w3.org/2000/svg"
	xmlns:xlink="http://www.w3.org/1999/xlink">
<g transform="scale(1, -1) translate(0, -445)">
<path d="M0,0L890,0L890,445L0,445Z" style="fill:#FFFFFF" />
<text x="338.39" y="-433.45" transform="scale(1, -1)"
	style="font-family:Times;font-weight:normal;font-style:normal;font-size:12px">BenchmarkTdigest_TotalSize/size=1000000</text>
<text x="460.7" y="-3.8613" transform="scale(1, -1)"
	style="font-family:Times;font-weight:normal;font-style:normal;font-size:12px">digest</text>
<text x="126.74" y="-15.602" transform="scale(1, -1)"
	style="font-family:Times;font-weight:normal;font-style:normal;font-size:10px">caio</text>
<text x="341.16" y="-15.602" transform="scale(1, -1)"
	style="font-family:Times;font-weight:normal;font-style:normal;font-size:10px">segmentio</text>
<text x="568.09" y="-15.602" transform="scale(1, -1)"
	style="font-family:Times;font-weight:normal;font-style:normal;font-size:10px">influxdata</text>
<text x="797.78" y="-15.602" transform="scale(1, -1)"
	style="font-family:Times;font-weight:normal;font-style:normal;font-size:10px">lightstep</text>
<g transform="rotate(90)">
<text x="218.24" y="11.555" transform="scale(1, -1)"
	style="font-family:Times;font-weight:normal;font-style:normal;font-size:12px">B/op</text>
</g>
<text x="35.494" y="-25.509" transform="scale(1, -1)"
	style="font-family:Times;font-weight:normal;font-style:normal;font-size:10px">0</text>
<text x="15.416" y="-188.33" transform="scale(1, -1)"
	style="font-family:Times;font-weight:normal;font-style:normal;font-size:10px">2e+08</text>
<text x="15.416" y="-351.15" transform="scale(1, -1)"
	style="font-family:Times;font-weight:normal;font-style:normal;font-size:10px">4e+08</text>
<path d="M42.994,30.23L50.994,30.23" style="fill:none;stroke:#000000;stroke-width:0.5" />
<path d="M42.994,193.05L50.994,193.05" style="fill:none;stroke:#000000;stroke-width:0.5" />
<path d="M42.994,355.87L50.994,355.87" style="fill:none;stroke:#000000;stroke-width:0.5" />
<path d="M46.994,111.64L50.994,111.64" style="fill:none;stroke:#000000;stroke-width:0.5" />
<path d="M46.994,274.46L50.994,274.46" style="fill:none;stroke:#000000;stroke-width:0.5" />
<path d="M50.994,30.23L50.994,429.58" style="fill:none;stroke:#000000;stroke-width:0.5" />
<path d="M60.072,30.23L60.072,79.756L90.072,79.756L90.072,30.23Z" style="fill:#F15A60" />
<path d="M286.71,30.23L286.71,36.757L316.71,36.757L316.71,30.23Z" style="fill:#F15A60" />
<path d="M513.36,30.23L513.36,31.736L543.36,31.736L543.36,30.23Z" style="fill:#F15A60" />
<path d="M740,30.23L740,72.011L770,72.011L770,30.23Z" style="fill:#F15A60" />
<path d="M90.072,30.23L90.072,30.468L120.07,30.468L120.07,30.23Z" style="fill:#7AC36A" />
<path d="M316.71,30.23L316.71,36.747L346.71,36.747L346.71,30.23Z" style="fill:#7AC36A" />
<path d="M543.36,30.23L543.36,31.48L573.36,31.48L573.36,30.23Z" style="fill:#7AC36A" />
<path d="M770,30.23L770,66.742L800,66.742L800,30.23Z" style="fill:#7AC36A" />
<path d="M120.07,30.23L120.07,30.335L150.07,30.335L150.07,30.23Z" style="fill:#5A9BD4" />
<path d="M346.71,30.23L346.71,429.58L376.71,429.58L376.71,30.23Z" style="fill:#5A9BD4" />
<path d="M573.36,30.23L573.36,31.54L603.36,31.54L603.36,30.23Z" style="fill:#5A9BD4" />
<path d="M800,30.23L800,69.196L830,69.196L830,30.23Z" style="fill:#5A9BD4" />
<path d="M150.07,30.23L150.07,30.468L180.07,30.468L180.07,30.23Z" style="fill:#FAA75B" />
<path d="M376.71,30.23L376.71,36.747L406.71,36.747L406.71,30.23Z" style="fill:#FAA75B" />
<path d="M603.36,30.23L603.36,31.483L633.36,31.483L633.36,30.23Z" style="fill:#FAA75B" />
<path d="M830,30.23L830,66.354L860,66.354L860,30.23Z" style="fill:#FAA75B" />
<path d="M180.07,30.23L180.07,30.468L210.07,30.468L210.07,30.23Z" style="fill:#9E67AB" />
<path d="M406.71,30.23L406.71,36.747L436.71,36.747L436.71,30.23Z" style="fill:#9E67AB" />
<path d="M633.36,30.23L633.36,31.485L663.36,31.485L663.36,30.23Z" style="fill:#9E67AB" />
<path d="M860,30.23L860,66.819L890,66.819L890,30.23Z" style="fill:#9E67AB" />
<path d="M870,417.81L870,429.58L890,429.58L890,417.81Z" style="fill:#F15A60" />
<text x="839.68" y="-418.03" transform="scale(1, -1)"
	style="font-family:Times;font-weight:normal;font-style:normal;font-size:12px">linear</text>
<path d="M870,406.03L870,417.81L890,417.81L890,406.03Z" style="fill:#7AC36A" />
<text x="845.68" y="-406.25" transform="scale(1, -1)"
	style="font-family:Times;font-weight:normal;font-style:normal;font-size:12px">rand</text>
<path d="M870,394.25L870,406.03L890,406.03L890,394.25Z" style="fill:#5A9BD4" />
<text x="815.69" y="-394.47" transform="scale(1, -1)"
	style="font-family:Times;font-weight:normal;font-style:normal;font-size:12px">alternating</text>
<path d="M870,382.47L870,394.25L890,394.25L890,382.47Z" style="fill:#FAA75B" />
<text x="811.02" y="-382.7" transform="scale(1, -1)"
	style="font-family:Times;font-weight:normal;font-style:normal;font-size:12px">exponential</text>
<path d="M870,370.7L870,382.47L890,382.47L890,370.7Z" style="fill:#9E67AB" />
<text x="826.34" y="-370.92" transform="scale(1, -1)"
	style="font-family:Times;font-weight:normal;font-style:normal;font-size:12px">tailspike</text>
</g>
</svg>
