<?xml version="1.0"?>
<!-- Generated by SVGo and Plotinum VG -->
<svg width="770pt" height="385pt" viewBox="0 0 770 385"
	xmlns="http://www.w3.org/2000/svg"
	xmlns:xlink="http://www.w3.org/1999/xlink">
<g transform="scale(1, -1) translate(0, -385)">
<path d="M0,0L770,0L770,385L0,385Z" style="fill:#FFFFFF" />
<text x="278.39" y="-373.45" transform="scale(1, -1)"
	style="font-family:Times;font-weight:normal;font-style:normal;font-size:12px">BenchmarkTdigest_TotalSize/size=1000000</text>
<text x="423.16" y="-3.8613" transform="scale(1, -1)"
	style="font-family:Times;font-weight:normal;font-style:normal;font-size:12px">digest</text>
<text x="141.67" y="-15.602" transform="scale(1, -1)"
	style="font-family:Times;font-weight:normal;font-style:normal;font-size:10px">caio</text>
<text x="321.11" y="-15.602" transform="scale(1, -1)"
	style="font-family:Times;font-weight:normal;font-style:normal;font-size:10px">segmentio</text>
<text x="513.06" y="-15.602" transform="scale(1, -1)"
	style="font-family:Times;font-weight:normal;font-style:normal;font-size:10px">influxdata</text>
<text x="707.78" y="-15.602" transform="scale(1, -1)"
	style="font-family:Times;font-weight:normal;font-style:normal;font-size:10px">lightstep</text>
<g transform="rotate(90)">
<text x="188.24" y="11.555" transform="scale(1, -1)"
	style="font-family:Times;font-weight:normal;font-style:normal;font-size:12px">B/op</text>
</g>
<text x="50.416" y="-25.509" transform="scale(1, -1)"
	style="font-family:Times;font-weight:normal;font-style:normal;font-size:10px">0</text>
<text x="20.416" y="-181.54" transform="scale(1, -1)"
	style="font-family:Times;font-weight:normal;font-style:normal;font-size:10px">8000000</text>
<text x="15.416" y="-337.56" transform="scale(1, -1)"
	style="font-family:Times;font-weight:normal;font-style:normal;font-size:10px">16000000</text>
<path d="M57.916,30.23L65.916,30.23" style="fill:none;stroke:#000000;stroke-width:0.5" />
<path d="M57.916,186.26L65.916,186.26" style="fill:none;stroke:#000000;stroke-width:0.5" />
<path d="M57.916,342.28L65.916,342.28" style="fill:none;stroke:#000000;stroke-width:0.5" />
<path d="M61.916,108.24L65.916,108.24" style="fill:none;stroke:#000000;stroke-width:0.5" />
<path d="M61.916,264.27L65.916,264.27" style="fill:none;stroke:#000000;stroke-width:0.5" />
<path d="M65.916,30.23L65.916,369.58" style="fill:none;stroke:#000000;stroke-width:0.5" />
<path d="M74.994,30.23L74.994,35.931L104.99,35.931L104.99,30.23Z" style="fill:#F15A60" />
<path d="M266.66,30.23L266.66,186.34L296.66,186.34L296.66,30.23Z" style="fill:#F15A60" />
<path d="M458.33,30.23L458.33,60.165L488.33,60.165L488.33,30.23Z" style="fill:#F15A60" />
<path d="M650,30.23L650,369.58L680,369.58L680,30.23Z" style="fill:#F15A60" />
<path d="M104.99,30.23L104.99,35.931L134.99,35.931L134.99,30.23Z" style="fill:#7AC36A" />
<path d="M296.66,30.23L296.66,186.34L326.66,186.34L326.66,30.23Z" style="fill:#7AC36A" />
<path d="M488.33,30.23L488.33,60.23L518.33,60.23L518.33,30.23Z" style="fill:#7AC36A" />
<path d="M680,30.23L680,369.58L710,369.58L710,30.23Z" style="fill:#7AC36A" />
<path d="M134.99,30.23L134.99,35.931L164.99,35.931L164.99,30.23Z" style="fill:#5A9BD4" />
<path d="M326.66,30.23L326.66,186.34L356.66,186.34L356.66,30.23Z" style="fill:#5A9BD4" />
<path d="M518.33,30.23L518.33,60.31L548.33,60.31L548.33,30.23Z" style="fill:#5A9BD4" />
<path d="M710,30.23L710,369.58L740,369.58L740,30.23Z" style="fill:#5A9BD4" />
<path d="M164.99,30.23L164.99,35.931L194.99,35.931L194.99,30.23Z" style="fill:#FAA75B" />
<path d="M356.66,30.23L356.66,186.34L386.66,186.34L386.66,30.23Z" style="fill:#FAA75B" />
<path d="M548.33,30.23L548.33,60.285L578.33,60.285L578.33,30.23Z" style="fill:#FAA75B" />
<path d="M740,30.23L740,369.58L770,369.58L770,30.23Z" style="fill:#FAA75B" />
<path d="M750,357.81L750,369.58L770,369.58L770,357.81Z" style="fill:#F15A60" />
<text x="725.68" y="-358.03" transform="scale(1, -1)"
	style="font-family:Times;font-weight:normal;font-style:normal;font-size:12px">rand</text>
<path d="M750,346.03L750,357.81L770,357.81L770,346.03Z" style="fill:#7AC36A" />
<text x="691.02" y="-346.25" transform="scale(1, -1)"
	style="font-family:Times;font-weight:normal;font-style:normal;font-size:12px">exponential</text>
<path d="M750,334.25L750,346.03L770,346.03L770,334.25Z" style="fill:#5A9BD4" />
<text x="713.01" y="-334.47" transform="scale(1, -1)"
	style="font-family:Times;font-weight:normal;font-style:normal;font-size:12px">normal</text>
<path d="M750,322.47L750,334.25L770,334.25L770,322.47Z" style="fill:#FAA75B" />
<text x="706.34" y="-322.7" transform="scale(1, -1)"
	style="font-family:Times;font-weight:normal;font-style:normal;font-size:12px">tailspike</text>
</g>
</svg>
